<svg xmlns="http://www.w3.org/2000/svg" xmlns:xlink="http://www.w3.org/1999/xlink" viewBox="0 0 255 250" id="online-travel-booking"><defs><linearGradient id="b" x1="81.76" x2="83.96" y1="39.51" y2="39.51" gradientUnits="userSpaceOnUse"><stop offset="0" stop-color="#2165ab"></stop><stop offset="1" stop-color="#0f3e77"></stop></linearGradient><linearGradient id="a" x1="85.8" x2="129.48" y1="50.52" y2="50.52" gradientUnits="userSpaceOnUse"><stop offset="0" stop-color="#00d0ff"></stop><stop offset="1" stop-color="#0080dc"></stop></linearGradient><linearGradient id="c" x1="28.31" x2="72" y1="83.59" y2="83.59" xlink:href="#a"></linearGradient></defs><g style="isolation:isolate"><g><path fill="#ffacac" d="M154.19,58a8.1,8.1,0,0,1-2.87-.09,6,6,0,0,0-2.75-.32c-1.41.47-3-.28-2.79.63.16.72,1.24.72,1.78.78.21,0,.75,0,.53.29-.6.89-5.29,2-5.42,2.47s.46.5.67.52c1.51.16,1.69,1.79,3.38,1.59a18.44,18.44,0,0,0,4.55-1.67,23.61,23.61,0,0,1,3.63-.7S154.48,57.93,154.19,58Z"></path><path fill="#5a5c71" d="M187,38.18c-1,.65-8.75,6.27-14.88,10.88s-3.59,7.35-1.55,8,4.77.81,12.76-3.87,11.58-8.36,10.22-13C192.72,37.48,191.8,35.1,187,38.18Z"></path><path fill="#5a5c71" d="M172.09,49.06a110.67,110.67,0,0,1-18,7.45s-2.39,3.13,1.07,6.29c0,0,15.49-2.19,21.84-6.43S176.29,46.76,172.09,49.06Z"></path><path fill="#002e47" d="M181.58,129.89c-1.88.74-6.4,1.13-8,2.47s-.3,2.23,1.58,2.6a9.71,9.71,0,0,0,4.38-.09,13.26,13.26,0,0,1,5.8-.16,2.1,2.1,0,0,0,2.62-2.14c.07-.86.16-5.85.16-5.85l-5.86,1S182.36,129.58,181.58,129.89Z"></path><path fill="#00537a" d="M184,98c-1.07,6-2.93,26.78-2.84,29.76.05,1.59,7.54,4.43,8.17.92,2.15-12,3.91-26.47,3.91-28C193.24,95.81,184.69,94.22,184,98Z"></path><path fill="#002e47" d="M208.79,136.83a6.22,6.22,0,0,0-.58-1.89l-5.1,1a4,4,0,0,0-.14,1,30.63,30.63,0,0,1-.55,4.71c-.31,1.35-.33,4,1.54,4.63s2.58,0,4-1.54a5,5,0,0,0,1.27-3.88C209.12,140.19,208.92,137.89,208.79,136.83Z"></path><path fill="#00537a" d="M199 105.41c0 6.12 1.83 26.89 2.44 29.81.32 1.54 8.18 2.76 8.18-.82 0-12.24-.82-26.8-1.1-28.35C207.67 101.33 199 101.57 199 105.41zM185.26 68.38c-2.15 12-1.74 31.3-1.73 32.88 0 4.81 8.31 6 9.45 2.4.87-2.79 2.53-12.55 3.19-15.38s1.85-7 1.77-10C197.89 76.67 185.89 64.87 185.26 68.38z"></path><path fill="#00537a" d="M195.68,76c0,12.24,3.13,31.16,3.41,32.7.86,4.72,9.23,4.19,9.7.38.37-2.93,1.88-23.66.83-27.64C209.21,79.94,195.68,72.44,195.68,76Z"></path><path fill="#5a5c71" d="M206.7,39.56a5.74,5.74,0,0,1-1.56-2.31,6.38,6.38,0,0,0-1.3-2.23,4.32,4.32,0,0,0-1.74-.56l-7.25,1.91s-4.12,0-5.14.77c-4.47,3.63-6.7,45.15-6.49,45.44s5.19,4.08,7.3,4.71l1.89-3.22,1.24,4.7c6.08,1.64,17.29,1.86,17.29,1.86,0-12.51,6.17-40.44,1.69-45.84A67.77,67.77,0,0,0,206.7,39.56Z"></path><path fill="#002e47" d="M206.08 50.79c.28.86 5.87 24.27 5.87 24.27s2.85-9.08-.37-16.59C210.45 55.81 208.57 51.76 206.08 50.79zM194.48 37.12A4.19 4.19 0 00193.17 39l-2.31 3.83 1.69 1.2L191 45.52l3.21 9.15s1.26-7.43 1.07-9.77c-.16-2 0-3.87-.12-5-.31-2.79 1.59-3.49 1.59-3.49A2.62 2.62 0 00194.48 37.12z"></path><path fill="#fff" d="M203.42,34.47c-2.7-2.1-7.6,1.16-8.71,5.27-.47,1.73-.49,8.87-.47,9.44.06,2.51.12,4,.12,4,.55-1.7,4.83-7.69,5.52-8.9a44.64,44.64,0,0,1,3-5C205,36.68,204.28,35.15,203.42,34.47Z"></path><path fill="#ffacac" d="M202.53,32.25s-6,3.26-6,4.75a4.25,4.25,0,0,0,1.6,2.74c2.19,0,4.33-2.37,5.11-3.34a.88.88,0,0,0,.14-.87A14.35,14.35,0,0,1,202.53,32.25Z"></path><path fill="#ffacac" d="M203.93,28.83s1.92-7.68-5-7.87-6,7.64-5.7,8.4-.16.66-.12,2c.05,1.79,1.57,4.11,1.78,4.91a1.57,1.57,0,0,0,2.05.81c4.53-1.54,5.57-4.2,5.57-4.2.7.14,1.05-.77,1.19-1.26s.2-.59.48-1.58S203.93,28.83,203.93,28.83Z"></path><path fill="#002e47" d="M198.58,20.45c-6.48.28-7.66,7.52-5.27,7.52,2.68,0,5.69-2.44,7.05-1.79,1.6.77.81,1.14.81,4.36,0,0,.1,1.13.41,1.13s.69-1.16.77-1.44c.14-.5,1.11-2,2-.73C206.64,24.26,203.3,20.24,198.58,20.45Z"></path><path fill="#4b6dff" d="M197.15,41.21l-1.8.36V44a5.68,5.68,0,0,0-1.18,3.14l0,7.54s2.53-5.71,3.08-6.87a7,7,0,0,0-.24-3.35,7.5,7.5,0,0,0,1.27-1.79Z"></path><path fill="#002e47" d="M203.42 34.47s1.47 2-.64 4.59c-.85 1-1.85 3-3.33 5-1.71 2.27-5.24 10.65-5.24 10.65l9-8.31-.4-1.5 1.4.15 1.22-5.67a4.93 4.93 0 00-.14-2.72A3.15 3.15 0 00203.42 34.47zM203.92 30a.72.72 0 00-1.24-.05 9.83 9.83 0 01-2.92 3 .47.47 0 00-.14.66.48.48 0 00.52.2 7.9 7.9 0 003.58-2.11 1.47 1.47 0 00.21-1.67z"></path><path fill="#4b6dff" d="M202.64,28.94a3,3,0,0,0-.87,2.81.12.12,0,0,0,.11.09h0a.11.11,0,0,0,.08-.13,2.78,2.78,0,0,1,.8-2.59c.48-.41.9-.31,1.13-.07a1,1,0,0,1,0,1.33.12.12,0,0,0,.18.15,1.22,1.22,0,0,0,0-1.64A1,1,0,0,0,202.64,28.94Z"></path><path fill="#ffacac" d="M219.17,83.61s-3.49-.6-3.55-.31a8.18,8.18,0,0,1-.91,2.72,6,6,0,0,0-1.09,2.55c0,1.49-1.13,2.79-.2,2.85.74.06,1.06-1,1.26-1.49.08-.19.18-.71.43-.41.68.83.37,5.62.82,5.9s.61-.3.69-.5c.59-1.4,2.19-1.11,2.49-2.79a18.7,18.7,0,0,0-.3-4.84A23.59,23.59,0,0,1,219.17,83.61Z"></path><path fill="#5a5c71" d="M210.07,42.88c-2.21-.81-6.1,2.28-4.52,7.79.33,1.16,4.25,8,6.92,15.21s6,5.53,7.21,3.76.49-3.8-1.71-12.79S213.49,44.13,210.07,42.88Z"></path><path fill="#5a5c71" d="M212.92,67.19a86.5,86.5,0,0,1,1.49,17.55s2.07,2.84,5.66.68c0,0,1.82-13.42-.2-20S212,63,212.92,67.19Z"></path><path fill="#c0ccda" d="M123,29.31S25,86.44,24.8,86.56a6.65,6.65,0,0,0-2.39,7.2l24,86.73c.69,2.06,2.58,3.14,4.44,2.32a2.71,2.71,0,0,1-2.59-1.75l-24-86.53a6.56,6.56,0,0,1,1.15-6A6.81,6.81,0,0,1,27.2,87l97.66-56.91c2.47-1.45,6.58,2.26,6.58,2.26A5.73,5.73,0,0,0,123,29.31Z"></path><path fill="#eff6f9" d="M231.65,163.58,158.76,123a6,6,0,0,0-5.42,0L50.88,182.65c-1.45.85-1.39,2.23.14,3.09l72.89,40.61a6,6,0,0,0,5.42,0l102.46-59.69C233.25,165.82,233.18,164.44,231.65,163.58Z"></path><path fill="#d6e1ea" d="M201.22,150.47l-42.91-24a1.28,1.28,0,0,0-1.27,0l-97.8,57a1.27,1.27,0,0,0,0,2.21l42.92,24a1.29,1.29,0,0,0,1.26,0l97.8-57A1.28,1.28,0,0,0,201.22,150.47Z"></path><path fill="#c0ccda" d="M193.21,186l-19.52-10.88a7.52,7.52,0,0,0-6.7,0l-24.1,14.05c-1.81,1.05-1.73,2.76.17,3.81l19.51,10.88a7.52,7.52,0,0,0,6.7,0l24.11-14C195.18,188.79,195.1,187.09,193.21,186Z"></path><path fill="#fff" d="M193.21,186.8l-19.52-10.87a7.49,7.49,0,0,0-6.7,0l-24.1,14c-1.81,1-1.73,2.76.17,3.82l19.51,10.87a7.49,7.49,0,0,0,6.7,0l24.11-14C195.18,189.57,195.1,187.86,193.21,186.8Z"></path><path fill="#c0ccda" d="M232.57,166a2.14,2.14,0,0,1-.29.33c-.07.07-102.95,60.05-102.95,60.05a5.86,5.86,0,0,1-5.42,0L51,185.74a2,2,0,0,1-1.19-1.56l.18,2.54a2,2,0,0,0,1.19,1.56l72.89,40.61a5.86,5.86,0,0,0,5.42,0l102.23-59.59a2.22,2.22,0,0,0,1.1-1.76v-2.38a2,2,0,0,1-.23.75A.21.21,0,0,1,232.57,166Z"></path><path fill="#002e47" d="M198.08,149.88h0a.46.46,0,0,1-.19.17l-3.47,2a1.26,1.26,0,0,1-.29.12h-.05a.91.91,0,0,1-.33,0h0a1.47,1.47,0,0,1-.36,0h0a1.75,1.75,0,0,1-.32-.12l-9.34-5.21c-.06,0-.09-.07-.13-.1l3-1.76h0a.4.4,0,0,0,.12-.1l.06,0v0h0l0,0,0-.06a.43.43,0,0,1,0-.05v-.06h0l0-1.27a.31.31,0,0,1-.07.2h0a.9.9,0,0,1-.2.18l-3.46,2a1.19,1.19,0,0,1-.32.12h0a1.87,1.87,0,0,1-.34,0h0a1.25,1.25,0,0,1-.35,0h0a1.75,1.75,0,0,1-.32-.12l-9.31-5.18-.12-.11,3-1.75h0l.12-.1s0,0,.06-.06v0h0a.33.33,0,0,1,0-.06.43.43,0,0,0,0,0s0,0,0-.06l-.05-1.27a.35.35,0,0,1-.06.19h0a.47.47,0,0,1-.19.18l-5,2.88a1.33,1.33,0,0,1-.3.11l0,0a1.87,1.87,0,0,1-.34,0h0a1.32,1.32,0,0,1-.34,0h0a1.43,1.43,0,0,1-.31-.12l-3.69-2.06a.53.53,0,0,1-.14-.11l4.49-2.62h0a.43.43,0,0,0,.13-.09l.05-.06v0h0s0,0,0,0l0-.05s0,0,0-.06a.07.07,0,0,0,0-.05h0l0-1.27a.31.31,0,0,1-.07.2h0a.71.71,0,0,1-.2.18l-15.44,9a.92.92,0,0,1-.29.11h-.05a1.24,1.24,0,0,1-.33,0h0a1.34,1.34,0,0,1-.35,0h0a1.33,1.33,0,0,1-.32-.12l-3.69-2.06-.1-.08,2-1.18h0a.6.6,0,0,0,.13-.09s0,0,.05-.07h0a0,0,0,0,0,0,0l0-.05s0,0,0-.06a.07.07,0,0,0,0,0h0l0-1,.37.21.15.07.13,0h0s0,0,0,0h0l.09,0h.52s0,0,0,0h0l.09,0,.21-.1,4.57-2.66h0a.62.62,0,0,0,.12-.08l.06-.07h0a.08.08,0,0,1,0,0s0,0,0,0a.35.35,0,0,1,0-.06.13.13,0,0,0,0,0h0l0-.83.24.13.14.07.12,0,.06,0h0l.11,0h.39l.12,0h.1l.08,0a.52.52,0,0,0,.2-.09l4.59-2.66h0l.11-.09.06-.07v0h0l0,0a.17.17,0,0,1,0-.05.07.07,0,0,0,0,0,.43.43,0,0,1,0-.05h0l0-1.28a.39.39,0,0,1-.06.21h0a.65.65,0,0,1-.19.17l-4.58,2.67-.29.11H159a1.76,1.76,0,0,1-.33,0h0a2.19,2.19,0,0,1-.36,0h0a1.75,1.75,0,0,1-.32-.12l-3.69-2a.55.55,0,0,1-.3-.4l.05,1.28a.5.5,0,0,0,.3.38l3.24,1.8-.07.07-4.58,2.67a.83.83,0,0,1-.29.1l0,0a1.84,1.84,0,0,1-.33,0h0a1.47,1.47,0,0,1-.36,0h0a1.73,1.73,0,0,1-.32-.11l-3.68-2.06a.49.49,0,0,1-.3-.4l0,1.28a.5.5,0,0,0,.3.39l3.21,1.78a.53.53,0,0,1-.17.16l-4.58,2.66a.92.92,0,0,1-.29.11l-.05,0a1.76,1.76,0,0,1-.33,0h0a2.19,2.19,0,0,1-.36,0h0a1.33,1.33,0,0,1-.32-.12l-3.69-2.06a.45.45,0,0,1-.29-.37l0,1.25a.48.48,0,0,0,.3.39l3.17,1.78v0h0a.69.69,0,0,1-.2.17l-4.58,2.67a2,2,0,0,1-.29.12h-.05a1.23,1.23,0,0,1-.33,0h0a2,2,0,0,1-.35,0h0a1.21,1.21,0,0,1-.32-.11l-3.68-2.06a.48.48,0,0,1-.3-.39l0,1.27a.5.5,0,0,0,.3.39l3.21,1.79a.46.46,0,0,1-.18.15L133.17,149l-.29.11h0a1.87,1.87,0,0,1-.34,0h0a2.07,2.07,0,0,1-.35,0h0a1.33,1.33,0,0,1-.32-.12L128.11,147a.52.52,0,0,1-.3-.39l0,1.27a.46.46,0,0,0,.3.38l3.2,1.8a.65.65,0,0,1-.17.15l-4.58,2.67a1.45,1.45,0,0,1-.29.11h0a1.87,1.87,0,0,1-.34,0h0a1.34,1.34,0,0,1-.35,0h0a1.39,1.39,0,0,1-.32-.12l-3.69-2.06a.55.55,0,0,1-.3-.39l0,1.27a.51.51,0,0,0,.3.4l3.21,1.78a.71.71,0,0,1-.18.16l-4.57,2.67a.91.91,0,0,1-.29.1l0,0-.34,0h0a2.2,2.2,0,0,1-.36,0h0a1.75,1.75,0,0,1-.32-.12l-3.68-2a.49.49,0,0,1-.3-.4l.05,1.28a.49.49,0,0,0,.29.39l3.2,1.78a.49.49,0,0,1-.16.16l-4.59,2.66a1.1,1.1,0,0,1-.29.12h0a1.15,1.15,0,0,1-.33,0h0a1.39,1.39,0,0,1-.35,0h0a1.05,1.05,0,0,1-.31-.12l-3.69-2.06a.5.5,0,0,1-.3-.39l0,1.27a.51.51,0,0,0,.3.4l3.21,1.78a.5.5,0,0,1-.17.15L107,164.3a1,1,0,0,1-.3.11h0a1.66,1.66,0,0,1-.33,0h0a2.2,2.2,0,0,1-.36,0h0a1.44,1.44,0,0,1-.31-.13l-3.7-2a.51.51,0,0,1-.29-.39l0,1.27a.51.51,0,0,0,.3.39l3.2,1.79a.64.64,0,0,1-.19.16l-4.57,2.67a1.25,1.25,0,0,1-.29.11h0a1.19,1.19,0,0,1-.33,0h0a1.31,1.31,0,0,1-.35,0h0a1.1,1.1,0,0,1-.32-.11l-3.69-2.06a1.06,1.06,0,0,1-.22-.18.44.44,0,0,1-.07-.22l0,1.28a.48.48,0,0,0,.3.39l3.21,1.79a.63.63,0,0,1-.17.15l-4.58,2.66a1.48,1.48,0,0,1-.29.12h-.05a1.69,1.69,0,0,1-.33,0h0a2,2,0,0,1-.35,0h0a1.75,1.75,0,0,1-.32-.12l-3.69-2.05a.78.78,0,0,1-.21-.19.3.3,0,0,1-.09-.21l0,1.28a.47.47,0,0,0,.3.38L92,172.94a1,1,0,0,1-.18.16l-4.57,2.67a1.33,1.33,0,0,1-.3.11h0a2,2,0,0,1-.34,0h0a2.23,2.23,0,0,1-.36-.05h0a1.18,1.18,0,0,1-.33-.12l-3.68-2.06a.52.52,0,0,1-.31-.39l0,1.27a.52.52,0,0,0,.3.4l3.21,1.78a.66.66,0,0,1-.17.16l-4.58,2.66a.83.83,0,0,1-.29.11l-.05,0-.33,0h0a2.2,2.2,0,0,1-.36,0h0a1.43,1.43,0,0,1-.31-.12l-3.69-2.05a.48.48,0,0,1-.3-.4l0,1.28a.47.47,0,0,0,.3.38l3.21,1.79a.54.54,0,0,1-.18.15l-4.58,2.67a1.1,1.1,0,0,1-.29.12h-.05a1.11,1.11,0,0,1-.33,0h0a1.45,1.45,0,0,1-.35,0h0a1,1,0,0,1-.31-.11l-3.69-2.06a.5.5,0,0,1-.3-.39l0,1.27a.52.52,0,0,0,.3.39l3.21,1.79a.88.88,0,0,1-.17.16l-4.58,2.66a.89.89,0,0,1-.3.11h0a1.86,1.86,0,0,1-.34,0h0a2.2,2.2,0,0,1-.36,0h0a1.53,1.53,0,0,1-.32-.13l-3.69-2.05a.51.51,0,0,1-.29-.37l0,1.25a.51.51,0,0,0,.3.39l3.69,2.06.15.07.12,0,0,0h0l.09,0,.1,0h.3l.13,0h0l0,0,.08,0,.21-.09,2.4-1.4,0,.86c0,.14.1.27.3.38l3.58,2,.1.06.14.07.12,0,.07,0h0l.1,0h.4l.12,0a.12.12,0,0,1,.07,0h0l.08,0a1.33,1.33,0,0,0,.21-.09L80,187.72h0l.11-.09s0,0,.06-.06l0,0h0l0,0s0,0,0-.06a.08.08,0,0,0,0,0v-.05l0-1,.38.21.14.07.12,0h.38s0,0,0,0h.16l.13,0h.1l.08,0,.21-.09,3.66-2.15,0,.88a.49.49,0,0,0,.3.39l3.16,1.76,0,0a0,0,0,0,0,0,0,.53.53,0,0,1-.19.17l-10,5.83a1,1,0,0,1-.29.11l0,0c-.11,0-.22,0-.34,0h0a1.42,1.42,0,0,1-.36,0h0a1.75,1.75,0,0,1-.32-.12l-3.69-2.05a.5.5,0,0,1-.29-.4l0,1.27a.51.51,0,0,0,.31.39l3.69,2.06.14.07.12,0H78l.09,0h.4l.13,0h.09l.08,0a.67.67,0,0,0,.21-.09l.27-.15,0,.85a.54.54,0,0,0,.3.4l3.69,2.05a.59.59,0,0,0,.14.06.28.28,0,0,0,.12,0l.06,0h0l.1,0h.62l.08,0,.2-.09.27-.16,0,.85a.5.5,0,0,0,.3.39l3.69,2.06a.59.59,0,0,0,.14.06l.11,0,.06,0h0l.1,0h.4l.12,0H90a.32.32,0,0,0,.09,0,.5.5,0,0,0,.2-.08l1.43-.83,0,.91a.5.5,0,0,0,.3.4l3.69,2.05a.61.61,0,0,0,.14.07l.11,0,.07,0h.2l0,1.2a.5.5,0,0,0,.3.4l3.69,2,.14.07.12,0,.06,0h0l.1,0h.61l.09,0,.2-.09,3.56-2.07a0,0,0,0,0,0,0,.54.54,0,0,0,.12-.09l0-.06,0,0h0l0,0a.33.33,0,0,1,0-.06.09.09,0,0,1,0-.05V205l0-1,.37.21.14.07.12,0,.07,0h0l.1,0h.4l.14,0h.08l.08,0a1,1,0,0,0,.21-.09l4.57-2.67h0l.11-.09s0,0,.06-.06l0,0h0s0,0,0,0a.11.11,0,0,0,0-.06s0,0,0-.05v-.05l0-1,.39.22.14.06.12,0,.06,0h0a.16.16,0,0,0,.1,0h.52l0,0h0l.08,0a1.89,1.89,0,0,0,.21-.09l4.57-2.66h0l.12-.09a.2.2,0,0,0,.06-.07h0l0,0a.08.08,0,0,1,0,0,.18.18,0,0,0,0-.06s0,0,0-.06h0l0-1,.38.22a.59.59,0,0,0,.14.06l.12.05h.1l.11,0h.39l.12,0,0,0h0l.09,0a.78.78,0,0,0,.21-.09l4.58-2.67h0l.13-.08s0,0,.05-.08a0,0,0,0,0,0,0h0l0,0a.17.17,0,0,0,0-.05s0,0,0-.06a.07.07,0,0,0,0-.05h0l0-1,.39.21.14.07.12,0,0,0h.14l.09,0h.49l0,0h.09l.21-.1,4.57-2.66h0l.12-.09.06-.06s0,0,0,0h0a0,0,0,0,1,0,0,.08.08,0,0,0,0-.06l0,0a.15.15,0,0,0,0-.06l0-1,.37.21.15.07.12,0h.11l.09,0h.39l.14,0h.08l.09,0,.21-.09,30.8-18h0l.13-.08,0-.07s0,0,0,0h0s0,0,0,0l0-.05a.14.14,0,0,1,0-.06v0h0l0-1,.37.2a.51.51,0,0,0,.15.07l.11,0,.07,0h0l.1,0h.57l0,0H166l.2-.09,4.58-2.67h0a.38.38,0,0,0,.12-.09l.06-.07h0l0,0a.08.08,0,0,1,0-.06s0,0,0-.06v-.05h0l0-1,.38.21.14.07.12,0h.11l.1,0h.39l.12,0h.1l.08,0a1.21,1.21,0,0,0,.2-.09l4.58-2.67h0a.48.48,0,0,0,.11-.09l.06-.06v0h0s0,0,0,0l0,0a.09.09,0,0,0,0-.05.43.43,0,0,1,0-.05l0-1.07.44.24a.69.69,0,0,0,.15.07.34.34,0,0,0,.12,0l.06,0h.53l.13,0h0l0,0,.09,0a.78.78,0,0,0,.21-.09l4.57-2.66h0l.12-.09.07-.07v0h0l0,0,0-.06s0,0,0-.05v0h0l0-1,.38.21a.59.59,0,0,0,.14.06.28.28,0,0,0,.12,0l.06,0h0l.11,0h.39l.12,0,.06,0h.12l.2-.1,4.58-2.67h0l.11-.09.05-.06,0,0v0l0-.05a.11.11,0,0,0,0-.06s0,0,0,0l-.05-1.28a.36.36,0,0,1-.06.2h0a.46.46,0,0,1-.19.17l-4.58,2.67a2.52,2.52,0,0,1-.29.12h-.05a1.76,1.76,0,0,1-.33,0h0l-.35,0s0,0,0,0a1.1,1.1,0,0,1-.32-.11L180.79,155a.51.51,0,0,1-.3-.39l0,1.27a.5.5,0,0,0,.3.39l3.21,1.79a.68.68,0,0,1-.18.15l-4.57,2.67a.83.83,0,0,1-.29.11h0a1.75,1.75,0,0,1-.33,0h0a2.33,2.33,0,0,1-.37,0h0a1.24,1.24,0,0,1-.32-.12l-3.69-2a1.06,1.06,0,0,1-.11-.09l.8-.47h0l.12-.09.06-.07a0,0,0,0,0,0,0h0v0a.15.15,0,0,0,0-.05s0,0,0-.06a.09.09,0,0,0,0,0h0l0-1.23.61.33.14.07a.53.53,0,0,0,.12,0l.06,0h0l.09,0h.41l.12,0h0l.05,0h.08l.21-.1,2.59-1.5h0a.48.48,0,0,0,.11-.09.46.46,0,0,0,.07-.07h0v0l0,0s0,0,0-.05a.14.14,0,0,0,0-.06v0h0l0-1,.41.22.15.07a.42.42,0,0,0,.12,0l.06,0h.65l.06,0h0l.08,0a.54.54,0,0,0,.22-.09l5.22-3h0l.12-.09,0-.06v0h0l0,0a.17.17,0,0,0,0-.05s0,0,0-.06a.09.09,0,0,0,0,0h0l0-.83,5.91,3.29a.84.84,0,0,0,.14.06l.12.05h.11l.09,0h.39l.13,0h.09l.09,0,.2-.09,3.47-2h0l.12-.09.06-.06a0,0,0,0,1,0,0h0l0,0,0-.06a.11.11,0,0,0,0,0s0,0,0-.06l-.05-1.28A.36.36,0,0,1,198.08,149.88Zm-23.91,1h0a.59.59,0,0,1-.2.18l-6,3.52a1.08,1.08,0,0,1-.3.11l0,0c-.11,0-.22,0-.34,0h0a2.2,2.2,0,0,1-.36,0h0a1.43,1.43,0,0,1-.31-.12l-3.69-2.06s-.06-.06-.09-.08l4.12-2.4h0l.12-.09.06-.07h0l0,0s0,0,0,0a.08.08,0,0,1,0-.05v-.06h0l0-1.27a.36.36,0,0,1-.06.2h0a.76.76,0,0,1-.21.18l-9,5.28a1.25,1.25,0,0,1-.31.11h0a1.84,1.84,0,0,1-.33,0h0a1.42,1.42,0,0,1-.36,0h0a1.51,1.51,0,0,1-.32-.11L152.74,152a.7.7,0,0,0-.1-.08l2-1.16h0a.48.48,0,0,0,.11-.09.23.23,0,0,0,.07-.07h0l0,0s0,0,0-.06l0,0v-.06l0-1.07,1.72,1,0-1.27-5-2.76a.52.52,0,0,1-.11-.1l.67-.38h0l.13-.09s0,0,0-.08h0a0,0,0,0,0,0,0l0-.05a.11.11,0,0,1,0-.06.13.13,0,0,0,0-.06h0l0-1,.42.24.15.07.12,0,.06,0h.13l.1,0h.47l0,0,.08,0a.85.85,0,0,0,.22-.09l4-2.32,0,.91a.54.54,0,0,0,.31.39l3.69,2.06.14.07a.53.53,0,0,1,.12,0l.05,0h0l.1,0H163l.15,0h.08l.08,0a1.33,1.33,0,0,0,.21-.09l1.67-1,0,.88a.53.53,0,0,0,.3.4l3.69,2.05a.59.59,0,0,0,.14.06l.11.05h.11l.09,0h.4l.12,0,.05,0h.05l.09,0a.93.93,0,0,0,.2-.09l.24-.14,0,.82a.56.56,0,0,0,.29.4l3.08,1.71A.35.35,0,0,1,174.17,150.84Z"></path><path fill="#00537a" d="M175.77 144.68h0s0 0 0 .06a.11.11 0 010 0l0 .06s0 0 0 0h0v0l-.06.06a.38.38 0 01-.12.09h0l-4.5 2.62.07.07 3.69 2.05a1.52 1.52 0 00.32.12h0a1.34 1.34 0 00.35 0h0l.33 0 0 0a1 1 0 00.29-.11l4.94-2.88a.57.57 0 00.18-.16l-5.52-3.08zM172.14 141.45l0-.88-1.78 1a.67.67 0 01-.21.09l-.08 0h0l-.05 0h-.51l-.1 0h-.1l-.12 0-.14-.07-.28-.15 0 .86h0v.05s0 0 0 0l0 .06s0 0 0 0h0l0 0 0 .06-.12.09h0l-3.11 1.81.12.11 3.69 2a1.33 1.33 0 00.32.12h0a1.39 1.39 0 00.35 0h0a1.24 1.24 0 00.33 0h0a1.45 1.45 0 00.29-.11l4.95-2.88a.66.66 0 00.17-.16l-3.2-1.78A.51.51 0 01172.14 141.45zM165 139.15l0-.9-6.67 3.89a.81.81 0 00.13.11l3.69 2.05a.88.88 0 00.32.12h0a2.09 2.09 0 00.35 0h0a1.86 1.86 0 00.34 0h0a1.1 1.1 0 00.29-.11l4.95-2.88.09-.09-3.22-1.8A.51.51 0 01165 139.15zM162.61 153.37l0-.84-4.74 2.76-.2.09-.09 0h-.09l-.12 0h-.4l-.1 0h-.1l-.12 0-.14-.07-.38-.21 0 1h0v.05s0 0 0 .06 0 0 0 .05a.67.67 0 00.15.13l3.69 2.05a.82.82 0 00.32.12h0a2 2 0 00.35 0h0a1.66 1.66 0 00.32 0h0a1.1 1.1 0 00.29-.11l4.58-2.67a.51.51 0 00.2-.18h0a0 0 0 000 0l-3.18-1.77A.51.51 0 01162.61 153.37zM157.29 163l0-.92-2.46 1.44-.21.09-.09 0h0l-.07 0-.12 0h-.4l-.1 0h-.1l-.12 0-.14-.07-.38-.21 0 1h0v.06a.07.07 0 000 0l0 .05 0 0h0l0 0-.05.07a1.25 1.25 0 01-.12.08h0l-2 1.16a.67.67 0 00.16.12l3.68 2.06a1.75 1.75 0 00.32.12h0a2.21 2.21 0 00.35 0h0a1.24 1.24 0 00.33 0h0a1.33 1.33 0 00.3-.11l4.57-2.67a.68.68 0 00.18-.15l-3.2-1.78A.55.55 0 01157.29 163zM150.74 166.8l0-.92-2.46 1.44-.21.09-.08 0h0l-.07 0-.12 0h-.4l-.1 0h-.1l-.12 0-.13-.06-.38-.22 0 1h0v0a.08.08 0 010 .05.14.14 0 010 .06l0 0h0v0l-.06.06-.12.09h0l-2 1.15.15.12 3.69 2a.82.82 0 00.32.12h0a2 2 0 00.35 0h0a1.84 1.84 0 00.33 0h0a1.1 1.1 0 00.29-.11l4.58-2.67a.51.51 0 00.17-.15l-3.2-1.79A.48.48 0 01150.74 166.8zM144.19 170.62l0-.92-2.46 1.43a.78.78 0 01-.21.09l-.08 0h-.08l-.14 0h-.39l-.1 0h0l-.07 0-.11 0-.14-.07-.39-.22 0 1h0V172a.43.43 0 010 0l0 .06s0 0 0 0h0v0l-.06.06-.12.09h0l-2 1.16a1.11 1.11 0 00.16.12l3.68 2.06a1.1 1.1 0 00.32.11h0a2.21 2.21 0 00.35 0h0a1.86 1.86 0 00.33 0h0a1.34 1.34 0 00.3-.12l4.58-2.66a.86.86 0 00.17-.15l-3.2-1.79A.48.48 0 01144.19 170.62zM137.63 174.44l0-.92L135.13 175a.72.72 0 01-.2.09l-.09 0h-.08l-.14 0h-.3l-.1 0h-.13l-.07 0-.11 0-.14-.07-.38-.21 0 1h0a.2.2 0 000 .05.43.43 0 010 .05l0 .06s0 0 0 0h0l-.06.07a.36.36 0 01-.12.08h0l-2 1.15a.7.7 0 00.16.13l3.68 2.05a1.52 1.52 0 00.32.12h0a1.39 1.39 0 00.35 0h0a1.84 1.84 0 00.33 0h0a1.34 1.34 0 00.3-.12l4.57-2.66a.65.65 0 00.17-.15l-3.2-1.79A.48.48 0 01137.63 174.44zM131.08 178.25l0-.91-2.46 1.43a1 1 0 01-.21.09l-.08 0h-.1l-.12 0h-.39l-.1 0h0l-.06 0-.12 0-.14-.06-.4-.23 0 1h0v.06s0 0 0 0l0 .06 0 0h0v0l-.06.07-.12.08h0l-2 1.15s.09.09.15.13l3.69 2a1.12 1.12 0 00.32.12h0a1.34 1.34 0 00.35 0h0a1.27 1.27 0 00.34 0h0a.83.83 0 00.29-.11l4.58-2.66a.79.79 0 00.19-.17l-3.2-1.78A.49.49 0 01131.08 178.25zM124.51 182.08l0-.92L122 182.6l-.21.09-.08 0h-.08l-.14 0h-.4l-.09 0h-.1l-.12 0-.14-.06-.39-.22 0 1h0v.06s0 0 0 0a.08.08 0 010 .05l0 0h0l0 0 0 .06-.12.09h0l-2 1.16a1.11 1.11 0 00.16.12l3.68 2.06a1.1 1.1 0 00.32.11h0a2 2 0 00.35 0h0a1.24 1.24 0 00.33 0h0a1.1 1.1 0 00.29-.11l4.58-2.67a.42.42 0 00.17-.15l-3.2-1.78A.49.49 0 01124.51 182.08zM118 185.9l0-.92-2.46 1.43a1 1 0 01-.21.1h-.08l0 0h-.05l-.12 0h-.4l-.1 0h-.1l-.12 0-.14-.07-.38-.21 0 1h0v.05s0 0 0 .06l0 0s0 0 0 0h0v0l-.06.06-.12.09h0l-2 1.15a.55.55 0 00.14.12l3.69 2.06a1.52 1.52 0 00.32.12h0a2.21 2.21 0 00.35 0h0a1.24 1.24 0 00.33 0h0a1.45 1.45 0 00.29-.11l4.57-2.67a.55.55 0 00.18-.15l-3.2-1.79A.48.48 0 01118 185.9zM111.4 189.72l0-.92-2.46 1.44-.21.09-.08 0h-.08l-.14 0H108l-.1 0h-.1l-.12 0-.14-.07-.38-.21 0 1h0v.05a.08.08 0 010 .05.14.14 0 010 .06l0 0h0l0 0 0 .06-.12.09h0l-2 1.15a.93.93 0 00.15.13l3.69 2.05a.82.82 0 00.32.12h0a2 2 0 00.35 0h0l.33 0h.05a1.48 1.48 0 00.29-.12l4.57-2.66a.51.51 0 00.17-.15l-3.2-1.79A.5.5 0 01111.4 189.72zM104.85 193.54l0-.92-2.46 1.43a.67.67 0 01-.21.09l-.08 0h0l-.05 0h-.52l-.1 0h0l-.07 0-.11 0-.14-.07-.49-.27 0 1.09h0s0 0 0 .06a.07.07 0 000 .05l0 0s0 0 0 0h0v0l-.06.06a.38.38 0 01-.12.09h0l-1.88 1.1a.65.65 0 00.15.12l3.69 2.05a1.05 1.05 0 00.31.12h0a1.47 1.47 0 00.36 0h0a1.84 1.84 0 00.33 0h0a1.45 1.45 0 00.29-.11l4.58-2.67a.86.86 0 00.17-.15l-3.2-1.79A.48.48 0 01104.85 193.54zM98.81 177.67l0-.87-3.66 2.14-.21.09-.08 0h-.08l-.15 0H94.2l-.1 0h0L94 179l-.12 0-.14-.06-.37-.21 0 1h0v.06s0 0 0 0a.17.17 0 010 .05l0 0h0s0 0 0 0l0 .06-.13.09h0l-.75.43.12.09 3.69 2.06a1 1 0 00.31.11h0a2 2 0 00.35 0h0a1.86 1.86 0 00.33 0h0a1.45 1.45 0 00.29-.11l4.58-2.67a.63.63 0 00.17-.15l-3.2-1.79A.47.47 0 0198.81 177.67zM105.36 173.85l0-.87-3.67 2.14a1 1 0 01-.21.09l-.08 0h-.08l-.14 0h-.58l-.13 0-.14-.06-.38-.22 0 1h0v.05s0 0 0 .06 0 0 0 .05l0 0h0l0 0a.17.17 0 01-.06.06.52.52 0 01-.11.1h0l-.73.43a1.06 1.06 0 00.11.09l3.69 2.06a1.33 1.33 0 00.32.12h0a2 2 0 00.35 0h0a1.86 1.86 0 00.34 0h0a1.33 1.33 0 00.3-.11l4.57-2.67a.51.51 0 00.17-.15l-3.2-1.79A.48.48 0 01105.36 173.85zM111.93 170l0-.87-3.68 2.15a1 1 0 01-.21.09l-.08 0h-.05l-.06 0h-.51l-.1 0h0l-.06 0-.12 0-.14-.07-.38-.21 0 1h0a.13.13 0 010 .06.09.09 0 010 .05s0 0 0 0l0 0h0v0l-.06.06a.38.38 0 01-.12.09h0l-.74.43a.87.87 0 00.11.09L109.3 175a1.52 1.52 0 00.32.12h0a1.39 1.39 0 00.35 0h0a1.87 1.87 0 00.34 0l0 0a.83.83 0 00.29-.11l4.58-2.66a.53.53 0 00.19-.17l-3.2-1.78C112 170.3 111.93 170.16 111.93 170zM118.48 166.21l0-.87-3.66 2.13-.21.09-.08 0h0l0 0H114l-.09 0h-.13l-.07 0-.12 0-.14-.07-.4-.22 0 1h0v.05l0 .05s0 0 0 .06l0 0h0l0 0-.06.07-.11.09h0l-.72.42a1.27 1.27 0 00.12.1l3.69 2a1.43 1.43 0 00.31.12h0a1.47 1.47 0 00.36 0h0a1.19 1.19 0 00.33 0h0a1 1 0 00.29-.11l4.57-2.66a.71.71 0 00.18-.16l-3.21-1.78A.52.52 0 01118.48 166.21zM125 162.38l0-.86-3.66 2.13a1.36 1.36 0 01-.21.1l-.08 0H121l-.12 0h-.39l-.1 0h-.1l-.12 0-.15-.07-.37-.21 0 1h0v.06s0 0 0 .05a.14.14 0 010 .06l0 0h0a.13.13 0 01-.06.07l-.12.09h0l-.74.43.12.09 3.69 2a1.05 1.05 0 00.31.12h0l.36 0h0a1.75 1.75 0 00.33 0h0a1.45 1.45 0 00.29-.11l4.58-2.67a.53.53 0 00.17-.16l-3.2-1.78A.48.48 0 01125 162.38zM131.59 158.57l0-.87-3.66 2.13-.21.1-.08 0h0l0 0-.14 0H127l-.09 0h-.1l-.12 0a.61.61 0 01-.14-.07l-.38-.21 0 1h0v.06a.43.43 0 000 .05l0 .05 0 0h0l0 0 0 .06-.12.09h0l-.74.42a.4.4 0 00.12.1l3.68 2.05a1.12 1.12 0 00.32.12h0a1.39 1.39 0 00.35 0h0a1.84 1.84 0 00.33 0h0a1.33 1.33 0 00.3-.11l4.57-2.67a.51.51 0 00.17-.15l-3.2-1.79A.47.47 0 01131.59 158.57zM138.14 154.75l0-.87L134.45 156l-.21.09-.09 0h0l-.06 0h-.65l-.06 0-.12 0-.15-.06-.37-.22 0 1h0v.05s0 0 0 .06 0 0 0 0l0 0h0v0a.34.34 0 01-.06.06l-.11.09h0l-.74.43a1.06 1.06 0 00.11.09l3.69 2.06a1.33 1.33 0 00.32.12h0a2 2 0 00.35 0h0a1.86 1.86 0 00.34 0h.05a1.45 1.45 0 00.29-.11l4.58-2.67a.86.86 0 00.17-.15l-3.2-1.79A.52.52 0 01138.14 154.75zM144.7 150.93l0-.87L141 152.2a1 1 0 01-.21.09l-.08 0h-.1l-.12 0H140l-.06 0-.12 0-.14-.06-.39-.22 0 1h0V153l0 .05s0 0 0 .06l0 0h0s0 0 0 0l-.06.07-.11.08h0l-.73.43s.06.07.11.09l3.69 2.06a1.33 1.33 0 00.32.12h0a2 2 0 00.35 0h0a1.86 1.86 0 00.34 0h0a1.1 1.1 0 00.29-.11l4.58-2.67a.63.63 0 00.17-.15l-3.2-1.78A.49.49 0 01144.7 150.93zM151.32 147.08l0-.87-3.74 2.17a.72.72 0 01-.2.09l-.09 0 0 0h-.48l-.09 0h-.14l-.06 0-.12 0a.59.59 0 01-.14-.06l-.38-.21 0 1h0a.13.13 0 010 .06.09.09 0 010 0s0 0 0 .06 0 0 0 0h0s0 0 0 0l-.06.06a.38.38 0 01-.12.09h0l-.74.43s.06.07.11.09l3.69 2.06a1.52 1.52 0 00.32.12h0a1.45 1.45 0 00.35 0h0a1.27 1.27 0 00.34 0h0a1 1 0 00.3-.11l4.57-2.66a.72.72 0 00.2-.18h0v0l-3.17-1.77A.48.48 0 01151.32 147.08zM152.49 152.83l0-.85-2.41 1.4a.67.67 0 01-.21.09l-.08 0h-.61l-.1 0H149l-.12 0a.61.61 0 01-.14-.07l-.38-.21 0 1h0v.06s0 0 0 0a.14.14 0 010 .06l0 0h0a.18.18 0 010 .07l-.12.09h0l-2 1.16a.27.27 0 00.1.08l3.69 2.06a1.33 1.33 0 00.32.12h0a1.39 1.39 0 00.35 0h0l.33 0H151a1.48 1.48 0 00.29-.12l4.57-2.67A.54.54 0 00156 155l-3.21-1.78A.48.48 0 01152.49 152.83zM149.44 161l0-.85-.09.06h0l-4.57 2.66a1 1 0 01-.21.09l-.09 0h0l-.07 0h-.52l-.09 0h-.1l-.13 0-.14-.07-.38-.21 0 1h0a137476956021.35 137476956021.35 0 010 .12s0 0 0 .05a1.12 1.12 0 00.16.13l3.69 2a1 1 0 00.32.12h0a1.34 1.34 0 00.35 0h0a1.87 1.87 0 00.34 0h0a1.34 1.34 0 00.3-.12l4.57-2.66a.71.71 0 00.18-.16l-3.21-1.78A.52.52 0 01149.44 161zM142.89 164.87l0-.86-.08.06h0l-4.58 2.67a.72.72 0 01-.2.09l-.09 0h-.09l-.12 0h-.4l-.1 0h0l-.06 0-.12 0-.14-.06-.39-.22 0 1h0v0s0 0 0 .06a.08.08 0 010 0 .7.7 0 00.16.13l3.69 2.06a1.33 1.33 0 00.32.12h0a1.34 1.34 0 00.35 0h0a1.27 1.27 0 00.34 0h0a.83.83 0 00.29-.11l4.58-2.66a.53.53 0 00.17-.16l-3.2-1.78A.48.48 0 01142.89 164.87zM136.33 168.68l0-.86-.08.07h0l-4.58 2.67a.67.67 0 01-.21.09l-.08 0h0l-.07 0h-.66l-.06 0-.12 0-.14-.06-.38-.21 0 1h0a.11.11 0 010 0 .07.07 0 010 .05s0 0 0 .06a.61.61 0 00.15.12l3.69 2.06a1.52 1.52 0 00.32.12h0a1.45 1.45 0 00.35 0h0a1.24 1.24 0 00.33 0h.05a.86.86 0 00.28-.11l4.59-2.67a.51.51 0 00.17-.15l-3.2-1.78A.55.55 0 01136.33 168.68zM129.78 172.5l0-.86s-.05.05-.09.06h0l-4.57 2.67-.21.09-.09 0h-.09l-.12 0h-.4l-.09 0H124l-.12 0-.14-.07-.4-.22 0 1h0a.13.13 0 010 .06.43.43 0 000 .05s0 0 0 0a.56.56 0 00.16.14l3.69 2.06a1.21 1.21 0 00.32.11h0a2.21 2.21 0 00.35 0h0a1.86 1.86 0 00.33 0h.05a1.45 1.45 0 00.29-.11l4.57-2.67a.51.51 0 00.17-.15l-3.2-1.79A.47.47 0 01129.78 172.5zM123.23 176.32l0-.86-.11.07h0l-4.57 2.67-.21.09-.08 0h-.1l-.12 0h-.4l-.1 0h-.1l-.12 0-.14-.07-.38-.21 0 1h0a.07.07 0 010 .05s0 0 0 .06l0 0a.49.49 0 00.15.13l3.69 2a1.12 1.12 0 00.32.12h0a2 2 0 00.35 0h0a1.66 1.66 0 00.33 0h0a1.1 1.1 0 00.29-.11l4.58-2.67a.53.53 0 00.19-.17l-3.2-1.78A.48.48 0 01123.23 176.32zM116.66 180.15l0-.86a.28.28 0 01-.08.06h0L112 182l-.21.09-.08 0 0 0h-.05l-.12 0h-.3l-.1 0h-.14l-.06 0-.12 0-.14-.06-.39-.22 0 1h0v0s0 0 0 .06l0 .05a1.12 1.12 0 00.16.13l3.69 2a1.43 1.43 0 00.31.12h0a1.34 1.34 0 00.35 0h0a1.15 1.15 0 00.33 0h.05a.83.83 0 00.29-.11l4.58-2.66a.53.53 0 00.17-.16l-3.2-1.78A.48.48 0 01116.66 180.15zM110.1 184l0-.86a.27.27 0 01-.08.07h0l-4.58 2.66-.21.09-.09 0H105l-.12 0h-.4l-.09 0h-.05l0 0-.13 0-.14-.07-.38-.21 0 1h0a.11.11 0 010 0 .13.13 0 010 .06l0 0a.56.56 0 00.16.14l3.68 2.05a1.75 1.75 0 00.32.12h0a1.47 1.47 0 00.36 0h0a1.87 1.87 0 00.34 0h0a1.34 1.34 0 00.3-.12l4.57-2.66a.71.71 0 00.18-.16l-3.2-1.78A.51.51 0 01110.1 184zM106.6 179.57l0-.85-2.41 1.4a.67.67 0 01-.21.09l-.08 0h-.08l-.14 0h-.54l-.06 0-.12 0-.13-.06-.39-.22 0 1h0v0s0 0 0 .06l0 .05 0 0h0l-.06.07-.12.09h0l-2 1.16a.7.7 0 00.1.08l3.69 2.06a1.75 1.75 0 00.32.12h0a1.34 1.34 0 00.35 0h0a1.76 1.76 0 00.33 0l0 0a.83.83 0 00.29-.11l4.58-2.66a.71.71 0 00.18-.16L106.9 180A.49.49 0 01106.6 179.57zM113.15 175.76l0-.86-2.41 1.4a.67.67 0 01-.21.09l-.08 0h0l0 0h-.53l-.1 0h-.1l-.12 0-.14-.07-.38-.21 0 1h0v.06a.08.08 0 010 .05.14.14 0 010 .06l0 0h0a0 0 0 000 0l-.06.06-.12.09h0l-2 1.16a.7.7 0 00.1.08l3.69 2.06a1.75 1.75 0 00.32.12h0a1.34 1.34 0 00.35 0h0a1.24 1.24 0 00.33 0h.05a.92.92 0 00.29-.11l4.58-2.67a.61.61 0 00.17-.15l-3.21-1.78A.52.52 0 01113.15 175.76zM119.72 171.93l0-.86-2.41 1.4a.72.72 0 01-.2.09l-.09 0h-.61l-.1 0h-.1l-.12 0-.14-.07-.4-.22 0 1h0a.11.11 0 010 .05s0 0 0 .06l0 0s0 0 0 0h0l-.06.07-.12.09h0l-2 1.15.1.09 3.69 2.05a1.52 1.52 0 00.32.12h0a1.47 1.47 0 00.36 0h0a1.76 1.76 0 00.33 0h0a1.25 1.25 0 00.29-.11l4.58-2.67a.59.59 0 00.18-.17l-3.2-1.78A.52.52 0 01119.72 171.93zM126.27 168.11l0-.86-2.41 1.41-.2.09-.09 0h-.07l-.15 0h-.39l-.1 0h-.1l-.12 0-.14-.06-.38-.21 0 1h0a.43.43 0 010 0s0 0 0 .06 0 0 0 .05l0 0h0a0 0 0 000 0l-.06.06-.12.09h0l-2 1.15.1.09 3.69 2a1 1 0 00.32.12h0a2 2 0 00.35 0h0a1.76 1.76 0 00.33 0h0a1.45 1.45 0 00.29-.11l4.58-2.67a.63.63 0 00.17-.15l-3.21-1.79A.51.51 0 01126.27 168.11zM132.83 164.29l0-.86-2.41 1.41-.21.09-.08 0H130l-.14 0h-.39l-.1 0h-.1l-.12 0-.14-.07-.39-.21 0 1h0a.13.13 0 010 .06.43.43 0 000 .05s0 0 0 .05l0 0h0s0 0 0 0l-.06.07-.11.08h0l-2 1.16a.7.7 0 00.1.08l3.69 2.06a1.75 1.75 0 00.32.12h0a1.47 1.47 0 00.36 0h0a1.32 1.32 0 00.34 0h0a1.1 1.1 0 00.29-.11l4.58-2.67a.51.51 0 00.17-.15l-3.2-1.79A.5.5 0 01132.83 164.29zM139.38 160.47l0-.85-2.41 1.4a.72.72 0 01-.2.09l-.09 0h-.1l-.12 0h-.5s0 0 0 0h0l-.06 0-.11 0-.14-.06-.38-.21 0 1h0a.43.43 0 010 .05s0 0 0 .06l0 0s0 0 0 0h0v0l-.06.06a.27.27 0 01-.12.09h0l-2 1.16s.06.06.1.08l3.69 2.06a1 1 0 00.32.11h0a2.2 2.2 0 00.36 0h0a1.75 1.75 0 00.33 0h0a1 1 0 00.29-.11l4.57-2.67a.54.54 0 00.18-.15l-3.21-1.79A.51.51 0 01139.38 160.47zM145.94 156.66l0-.86-2.41 1.4a.67.67 0 01-.21.09l-.08 0h0l-.07 0h-.65l-.07 0-.12 0-.13-.06-.39-.22 0 1h0a.43.43 0 000 .05.43.43 0 010 .05l0 .06s0 0 0 0h0a0 0 0 000 0l-.06.06-.12.09h0l-2 1.16a.44.44 0 00.11.08l3.68 2.06a1.75 1.75 0 00.32.12h0a1.34 1.34 0 00.35 0h0a1.15 1.15 0 00.33 0h.05a.92.92 0 00.29-.11l4.58-2.66a.53.53 0 00.17-.16l-3.21-1.78A.49.49 0 01145.94 156.66zM100 183.39l0-.85-2.41 1.4a1.21 1.21 0 01-.2.09l-.09 0h-.08l-.13 0h-.4l-.1 0h-.1l-.12 0-.14-.06-.38-.22 0 1h0v.06a.43.43 0 000 0l0 .05 0 0h0v0l-.06.07-.12.08h0l-2 1.16s.06.06.1.08l3.69 2.06a1.52 1.52 0 00.32.12h0a2.2 2.2 0 00.36 0h0a2 2 0 00.34 0h0a1.1 1.1 0 00.29-.11l4.58-2.67a.51.51 0 00.17-.15l-3.21-1.79A.51.51 0 01100 183.39zM103.55 187.78l0-.85-.08.06h0l-4.58 2.67a.67.67 0 01-.21.09l-.08 0h0l-.05 0H97.8l-.06 0-.12 0-.14-.06-.38-.21 0 1h0v.05a.14.14 0 010 .06l0 0a.51.51 0 00.16.13l3.69 2.06a1.33 1.33 0 00.32.12h0a1.39 1.39 0 00.35 0h0a1.24 1.24 0 00.33 0h0a.83.83 0 00.29-.11l4.58-2.66a.66.66 0 00.17-.16l-3.2-1.78A.49.49 0 01103.55 187.78zM156 157.22l0-.85-.08.06h0l-4.58 2.66a.72.72 0 01-.2.09l-.09 0h0l-.06 0-.12 0h-.4l-.09 0h-.11l-.11-.05-.15-.06-.38-.21 0 1h0v.06s0 0 0 .05a.05.05 0 010 0 .73.73 0 00.16.14l3.69 2.05a1.05 1.05 0 00.31.12h0a1.47 1.47 0 00.36 0h0a1.69 1.69 0 00.33 0h.05a.93.93 0 00.29-.12l4.58-2.66a.66.66 0 00.17-.16l-3.2-1.78A.48.48 0 01156 157.22zM148.79 142.09l0-.85-2.37 1.38-.21.1h-.09l0 0H146l-.13 0h-.4l-.09 0h-.1l-.13 0-.14-.07-.44-.25 0 1.06h0a.09.09 0 010 .05.07.07 0 010 0l0 .06s0 0 0 0h0l-.06.07-.12.09h0l-2 1.16a.44.44 0 00.11.08l3.68 2.06a1.75 1.75 0 00.32.12h0a2.2 2.2 0 00.36 0h0a1.66 1.66 0 00.33 0h.05a1 1 0 00.29-.11l4.57-2.67a.63.63 0 00.21-.18h0l-3.2-1.78A.51.51 0 01148.79 142.09zM142.2 145.94l0-.86-2.41 1.4a.72.72 0 01-.2.09l-.09 0h0l-.05 0h-.72l-.12 0-.14-.06-.38-.21 0 1h0s0 0 0 .06 0 0 0 .05l0 .06s0 0 0 0h0v0s0 .05-.06.06a.48.48 0 01-.11.09h0l-2 1.16a.7.7 0 00.1.08l3.69 2.06a1.75 1.75 0 00.32.12h0a2.2 2.2 0 00.36 0h0a1.86 1.86 0 00.34 0h0a1.45 1.45 0 00.29-.11l4.58-2.67a.83.83 0 00.17-.15l-3.21-1.79A.51.51 0 01142.2 145.94zM135.65 149.75l0-.85-2.4 1.39-.21.1-.09 0h-.09l-.13 0h-.4l-.09 0h-.1l-.12 0-.14-.07-.39-.21 0 1h0a.13.13 0 010 .06.07.07 0 010 .05s0 0 0 .06 0 0 0 0h0s0 0 0 0l-.06.07-.11.08h0l-2 1.16.1.08 3.69 2.06a1 1 0 00.32.11h0a2 2 0 00.35 0h0a1.66 1.66 0 00.33 0h.05a1.45 1.45 0 00.29-.11l4.58-2.67a.63.63 0 00.17-.15l-3.2-1.79A.5.5 0 01135.65 149.75zM129.1 153.57l0-.85-2.4 1.4-.21.09-.08 0h-.08l-.14 0h-.4l-.09 0h-.1l-.13 0-.14-.07-.38-.21 0 1h0a.07.07 0 010 .05.13.13 0 010 .06l0 .05s0 0 0 0h0v0a.34.34 0 01-.06.06l-.12.09h0l-2 1.16.1.08 3.68 2.05a1.75 1.75 0 00.32.12h0a2.19 2.19 0 00.36 0h0a1.69 1.69 0 00.33 0h0a1.1 1.1 0 00.29-.12l4.58-2.66a.87.87 0 00.17-.16L129.4 154A.48.48 0 01129.1 153.57zM122.54 157.39l0-.86-2.41 1.4a.72.72 0 01-.2.09l-.09 0h-.61l-.1 0h0l-.06 0-.12 0a.35.35 0 01-.14-.06l-.39-.21 0 1h0v.06s0 0 0 0a.08.08 0 010 .05l0 0h0l0 0 0 .06-.12.09h0l-2 1.15a.7.7 0 00.1.08l3.69 2.06a1.33 1.33 0 00.32.12h0a1.45 1.45 0 00.35 0h0a1.84 1.84 0 00.33 0h0a1.1 1.1 0 00.29-.12l4.58-2.66a.53.53 0 00.17-.16l-3.2-1.78A.52.52 0 01122.54 157.39zM116 161.21l0-.86-2.41 1.4a.67.67 0 01-.21.09l-.08 0h-.1l-.12 0h-.4l-.1 0h-.1l-.12 0-.14-.07-.38-.21 0 1h0a.07.07 0 010 .05.13.13 0 010 .06s0 0 0 .05l0 0h0v0a.17.17 0 01-.06.06l-.11.09h0l-2 1.16.1.09 3.69 2a1.33 1.33 0 00.32.12h0a1.34 1.34 0 00.35 0h0a1.15 1.15 0 00.33 0h0a.92.92 0 00.29-.11l4.58-2.66a.66.66 0 00.17-.16l-3.2-1.78A.48.48 0 01116 161.21zM109.43 165l0-.86-2.4 1.4a1 1 0 01-.21.09l-.09 0h-.07l-.14 0h-.59l-.13 0-.14-.06-.4-.23 0 1h0a.13.13 0 010 .06.07.07 0 010 .05.14.14 0 000 .06s0 0 0 0h0l-.06.07-.12.09h0l-2 1.16a.45.45 0 00.1.09L106.8 170a1.75 1.75 0 00.32.12h0a1.34 1.34 0 00.35 0h0a1.19 1.19 0 00.33 0h0a1.1 1.1 0 00.29-.11l4.58-2.67a.57.57 0 00.18-.16l-3.19-1.78A.53.53 0 01109.43 165zM102.86 168.86l0-.86-2.41 1.4a.72.72 0 01-.2.09l-.08 0h-.08l-.14 0h-.54l-.06 0-.12 0-.14-.07-.38-.2 0 1h0a.13.13 0 010 .06.09.09 0 010 .05s0 0 0 .05l0 0h0v0l-.06.06-.11.09h0l-2 1.16.1.08 3.69 2.05a.84.84 0 00.31.12h0a2 2 0 00.35 0h0a1.75 1.75 0 00.33 0h0a1.45 1.45 0 00.29-.11l4.57-2.67a.68.68 0 00.18-.15l-3.21-1.79A.5.5 0 01102.86 168.86zM96.31 172.67l0-.86-2.4 1.41-.21.09-.09 0h-.07l-.14 0H93l-.09 0h-.11l-.12 0a.61.61 0 01-.14-.07l-.39-.22 0 1h0v.06l0 0a.14.14 0 010 .06l0 0h0s0 0 0 0 0 0-.06.07l-.12.08h0l-2 1.16a.87.87 0 00.1.08l3.69 2.06a1 1 0 00.32.11h0a2 2 0 00.35 0h0a1.86 1.86 0 00.34 0h0a1.25 1.25 0 00.29-.11L99.64 175a.53.53 0 00.17-.16l-3.2-1.78A.52.52 0 0196.31 172.67zM89.75 176.49l0-.85-2.4 1.4-.21.09-.08 0h-.1l-.12 0h-.4l-.09 0h-.11l-.12 0L86 177l-.38-.21 0 1h0a.15.15 0 010 .06.11.11 0 010 0 .08.08 0 010 .05l0 0h0s0 0 0 0l-.06.06-.11.09h0l-2 1.17.11.08 3.68 2a1 1 0 00.32.12h0a1.47 1.47 0 00.36 0h0a1.76 1.76 0 00.33 0h0a1.26 1.26 0 00.29-.12l4.58-2.66a.86.86 0 00.17-.15l-3.2-1.79A.52.52 0 0189.75 176.49zM76.65 184.13l0-.86-2.41 1.4a.67.67 0 01-.21.09l-.08 0 0 0h0l-.14 0h-.39l-.1 0h0l0 0-.12 0a.94.94 0 01-.15-.06l-.37-.21 0 1h0v.06a.08.08 0 010 .05.14.14 0 010 .06l0 0h0l0 0 0 .06-.12.09h0l-2 1.16a.27.27 0 00.1.08L74 189.12a1.33 1.33 0 00.32.12h0a1.34 1.34 0 00.35 0h0a1.15 1.15 0 00.33 0h0a1.1 1.1 0 00.29-.11L80 186.45a.42.42 0 00.17-.15L77 184.52A.48.48 0 0176.65 184.13zM83.2 180.31l0-.86-2.4 1.4a.67.67 0 01-.21.09l-.08 0H80.4l-.14 0h-.4l-.1 0h0l-.06 0-.12 0a.59.59 0 01-.14-.06l-.38-.21 0 1h0v.05s0 0 0 .06l0 0 0 0h0l0 0 0 .06-.12.09h0l-2 1.16.1.09 3.69 2.05a1.33 1.33 0 00.32.12h0a1.39 1.39 0 00.35 0h0a1.87 1.87 0 00.34 0h0a1.1 1.1 0 00.29-.12l4.58-2.66a.53.53 0 00.17-.16l-3.2-1.78A.52.52 0 0183.2 180.31zM92.25 181.49l0-.87-3.66 2.13-.21.1-.08 0h-.09l-.14 0h-.39l-.1 0h-.1l-.12 0-.14-.06-.38-.22 0 1h0v.05a.14.14 0 010 .06.17.17 0 010 .05l0 0h0l0 0-.05.06-.12.09h0l-.74.43a1.06 1.06 0 00.11.09l3.69 2a.88.88 0 00.32.12h0a1.41 1.41 0 00.35.05h0a1.86 1.86 0 00.34 0h0a1.17 1.17 0 00.28-.11l4.58-2.67a1 1 0 00.18-.15l-3.21-1.79A.52.52 0 0192.25 181.49zM93.49 187.21l0-.85-2.41 1.4-.2.09-.09 0h-.08l-.14 0h-.4l-.09 0h-.11l-.11 0-.14-.07-.48-.26 0 1.09h0a.13.13 0 010 0s0 0 0 .06a.08.08 0 000 .05l0 0h0l-.06.07L89 189h0l-1.89 1.11.1.08 3.69 2a.82.82 0 00.32.12h0a2 2 0 00.35 0h0a1.24 1.24 0 00.33 0h0a1.1 1.1 0 00.29-.11l4.58-2.67a.68.68 0 00.18-.15l-3.21-1.79A.52.52 0 0193.49 187.21zM86.93 191l0-.86-7.48 4.36a.7.7 0 00.1.08l3.69 2.06a1.75 1.75 0 00.32.12h0a1.34 1.34 0 00.35 0h0a1.69 1.69 0 00.33 0h.05l.29-.11 5.69-3.32a.51.51 0 00.17-.15l-3.21-1.79A.52.52 0 0186.93 191zM97 191.6l0-.86-.08.07h0l-4.58 2.67a.67.67 0 01-.21.09l-.08 0h-.1l-.12 0h-.59l-.12 0-.15-.07-.38-.21 0 1h0v.06l0 .05a.08.08 0 010 0 .08.08 0 000 0h0s0 0 0 0a.19.19 0 01-.06.07l-.12.09h0l-5.23 3.05a.34.34 0 00.09.08l3.69 2.06a1.1 1.1 0 00.32.11h0a2 2 0 00.35 0h0a1.86 1.86 0 00.34 0h0a1.1 1.1 0 00.29-.11l10-5.83a.59.59 0 00.2-.18h0s0 0 0-.05L97.3 192A.47.47 0 0197 191.6zM98.29 197.35l0-.91-6.42 3.73s.09.09.15.13l3.69 2a1.75 1.75 0 00.32.12h0a1.45 1.45 0 00.35 0h0a1.84 1.84 0 00.33 0h.05a1.48 1.48 0 00.29-.12l4.57-2.66a.71.71 0 00.18-.16l-3.2-1.78A.49.49 0 0198.29 197.35zM101.81 201.76l0-.88-.1.07h0l-4.58 2.67-.2.08-.09 0h0l-.06 0-.13 0h-.31a.53.53 0 00.27.32l3.69 2.05a1.24 1.24 0 00.32.12h0l.35 0h0l.33 0h0a1.25 1.25 0 00.29-.11l3.55-2.07a.63.63 0 00.17-.15l-3.21-1.79A.52.52 0 01101.81 201.76zM108.37 197.94l0-.89-.11.08h0l-4.58 2.67-.2.09-.09 0h0l-.06 0-.13 0h-.39l-.1 0h-.1l-.12 0-.14-.06-.38-.22 0 1h0a.07.07 0 010 0s0 0 0 .06a.08.08 0 000 .05.56.56 0 00.16.14l3.69 2.06a1.21 1.21 0 00.32.11h0a1.34 1.34 0 00.35 0h0a1.27 1.27 0 00.34 0h0a1.33 1.33 0 00.3-.11l4.57-2.67a.68.68 0 00.18-.15l-3.21-1.79A.52.52 0 01108.37 197.94zM114.92 194.12l0-.88-.1.07h0L110.2 196a1 1 0 01-.21.1l-.08 0h-.1l-.12 0h-.4l-.1 0h-.1l-.11 0-.14-.07-.39-.21 0 1h0a.13.13 0 010 .06s0 0 0 .05l0 0a.79.79 0 00.17.14l3.69 2.05a1 1 0 00.32.12h0l.36 0h0a1.75 1.75 0 00.33 0h0a1.45 1.45 0 00.29-.11l4.58-2.67a.5.5 0 00.17-.15l-3.21-1.79A.52.52 0 01114.92 194.12zM121.48 190.3l0-.88-.11.08h0l-4.58 2.67a.67.67 0 01-.21.09l-.08 0h0l-.06 0h-.65l-.06 0-.12 0-.14-.06L115 192l0 1h0V193s0 0 0 .05 0 0 0 0a.49.49 0 00.17.14l3.68 2.06a1.75 1.75 0 00.32.12h0a1.47 1.47 0 00.36 0h0a1.15 1.15 0 00.33 0h0a.83.83 0 00.29-.11l4.58-2.66a.53.53 0 00.17-.16l-3.21-1.79A.46.46 0 01121.48 190.3zM128 186.48l0-.88-.1.08h0l-4.58 2.67a.67.67 0 01-.21.09l-.08 0h-.08l-.14 0h-.53l-.06 0-.12 0-.14-.06-.39-.22 0 1h0a.13.13 0 010 .06.43.43 0 010 0s0 0 0 .05a.49.49 0 00.17.14l3.69 2.06a1.33 1.33 0 00.32.12h0a1.34 1.34 0 00.35 0h0l.33 0 0 0a.92.92 0 00.29-.11l4.58-2.67a.61.61 0 00.17-.15l-3.21-1.78A.48.48 0 01128 186.48zM160.82 167.38l0-.88-.11.08h0l-4.58 2.67a.72.72 0 01-.2.09l-.09 0h-.1l-.12 0h-.53l-.06 0-.12 0-.14-.06-.38-.21 0 1h0v.06s0 0 0 0a.14.14 0 010 .06l0 0h0l0 0a.15.15 0 01-.05.06l-.12.1h0l-4.58 2.67a1 1 0 01-.21.09l-.08 0h-.1l-.12 0h-.6l-.11 0-.14-.06-.39-.22 0 1h0a.13.13 0 010 .06s0 0 0 0l0 .06 0 0h0v0l-.06.07a.36.36 0 01-.12.08h0L143 176.89l-.2.09-.09 0h-.09l-.13 0H142s0 0 0 0h-.07l-.12 0-.14-.06-.38-.21 0 1h0v.06l0 .05a.08.08 0 010 0s0 0 0 0h0v0l-.06.06a.54.54 0 01-.12.09h0l-4.58 2.66a1 1 0 01-.21.1l-.08 0H136l-.12 0h-.39l-.1 0h-.1l-.12 0-.14-.07-.4-.22 0 1h0v0a.14.14 0 010 .06.17.17 0 010 .05l0 0h0l0 0-.06.06-.11.09h0l-4.58 2.66a.67.67 0 01-.21.09l-.08 0 0 0H129l-.1 0h0l-.07 0-.11 0-.14-.07-.38-.21 0 1h0v.06s0 0 0 0a.08.08 0 010 .05.83.83 0 00.17.15l3.69 2a1.52 1.52 0 00.32.12h0a1.47 1.47 0 00.36 0h0a1.84 1.84 0 00.33 0h.05a1.45 1.45 0 00.29-.11l30.81-18a.42.42 0 00.17-.15l-3.21-1.79A.47.47 0 01160.82 167.38zM167.37 163.56l0-.86-4.69 2.73a.67.67 0 01-.21.09l-.08 0h-.05l-.05 0h-.66l-.06 0-.12 0a.84.84 0 01-.14-.06l-.38-.22 0 1h0s0 0 0 0 0 0 0 .06a.05.05 0 000 0 .49.49 0 00.17.14l3.69 2.06a1.33 1.33 0 00.32.12h0a1.42 1.42 0 00.36 0h0a1.27 1.27 0 00.34 0h0a1.25 1.25 0 00.31-.12l4.57-2.66a.71.71 0 00.18-.16L167.67 164A.5.5 0 01167.37 163.56zM174 159.71l0-.87-1.74 1a1 1 0 01-.21.1l-.08 0h-.1l-.12 0h-.4l-.1 0h-.1l-.12 0-.13-.07-.48-.26 0 1.08h0v.06s0 0 0 0l0 .05s0 0 0 0h0a0 0 0 000 0l-.06.06a.27.27 0 01-.12.09h0l-2.65 1.53a.31.31 0 00.11.09l3.69 2.06a1.52 1.52 0 00.32.12h0a1.47 1.47 0 00.36 0h0a1.76 1.76 0 00.33 0h0a1.45 1.45 0 00.29-.11l4.58-2.67a.59.59 0 00.2-.18h0a0 0 0 010 0l-3.18-1.77A.48.48 0 01174 159.71zM171.77 154.54l0-.92-3.77 2.2a.78.78 0 01-.21.09l-.08 0h-.05l0 0h-.52l-.1 0h0l-.06 0-.12 0-.14-.07-.45-.25 0 1.06h0v.05s0 0 0 .05a.14.14 0 010 .06l0 0h0l0 0a.18.18 0 01-.05.07l-.12.09h0l-4.58 2.67a1 1 0 01-.21.09l-.08 0H161l-.14 0h-.4l-.09 0h-.1l-.12 0-.14-.06-.39-.22 0 1h0v.05l0 .06s0 0 0 .05l0 0h0v0a.17.17 0 01-.06.06l-.12.09h0l-2 1.15a.67.67 0 00.15.13l3.69 2a1.43 1.43 0 00.31.12h0a2.2 2.2 0 00.36 0h0a1.66 1.66 0 00.33 0h.05a1.1 1.1 0 00.29-.11l7.51-4.37a.47.47 0 00.19-.18h0a.06.06 0 000 0l-3.15-1.76a.51.51 0 01-.31-.4l0-1.27a.54.54 0 00.3.4l3.69 2.05a1.43 1.43 0 00.31.12h0a1.34 1.34 0 00.35 0h0a1.27 1.27 0 00.34 0h0a1 1 0 00.3-.11l2.71-1.58a.85.85 0 00.2-.17h0a.37.37 0 000-.17l-3.07-1.71A.52.52 0 01171.77 154.54zM176.37 151.87l0-.89-.16.09a.67.67 0 01-.21.09l-.08 0 0 0h-.06l-.12 0h-.4l-.09 0h-.11l-.11 0-.14-.07-.59-.33 0 1.18h0V152s0 0 0 .05a.14.14 0 010 .06l0 0h0v0l-.05.06-.13.09h0l-2.12 1.24a.65.65 0 00.15.12l3.69 2.05a.84.84 0 00.31.12h0a1.34 1.34 0 00.35 0h0a1.69 1.69 0 00.33 0h0a1.26 1.26 0 00.29-.12l2.59-1.5a.59.59 0 00.2-.18l-3.2-1.78A.48.48 0 01176.37 151.87zM183.43 147.75l0-.89-.29.18-.21.09-.08 0h-.1l-.12 0h-.39l-.1 0H182l-.12 0-.14-.07-.39-.21 0 1h0s0 0 0 .06 0 0 0 0l0 .05 0 0h0s0 0 0 0l-.06.06-.12.09h0l-4.63 2.7a1.27 1.27 0 00.12.1l3.69 2.06a1.1 1.1 0 00.32.11h0a1.49 1.49 0 00.36.05h0a1.86 1.86 0 00.33 0h0l.29-.11L186.9 150s0 0 .07-.06l-3.23-1.8A.52.52 0 01183.43 147.75zM163.85 130.35l-3.69-2a1.51 1.51 0 00-1.36 0L154.22 131c-.37.21-.35.56 0 .78l3.69 2a1.57 1.57 0 001.37 0l4.58-2.67C164.26 130.91 164.23 130.57 163.85 130.35zM157.43 134.09L153.74 132a1.51 1.51 0 00-1.36 0l-4.58 2.67c-.37.22-.35.56 0 .78l3.69 2.05a1.54 1.54 0 001.37 0l4.58-2.67C157.83 134.66 157.82 134.31 157.43 134.09zM150.88 137.91l-3.69-2.06a1.55 1.55 0 00-1.36 0l-4.58 2.66c-.37.22-.35.57 0 .78l3.69 2.06a1.5 1.5 0 001.37 0l4.58-2.66C151.28 138.47 151.27 138.12 150.88 137.91zM144.26 141.76l-3.69-2a1.51 1.51 0 00-1.36 0l-4.58 2.66c-.37.22-.35.56 0 .78l3.69 2a1.54 1.54 0 001.37 0l4.58-2.67C144.67 142.33 144.64 142 144.26 141.76zM137.71 145.58L134 143.53a1.51 1.51 0 00-1.36 0l-4.58 2.67c-.37.21-.35.56 0 .78L131.8 149a1.54 1.54 0 001.37 0l4.58-2.67C138.11 146.15 138.1 145.8 137.71 145.58zM131.15 149.4l-3.69-2.06a1.55 1.55 0 00-1.36 0L121.52 150c-.37.21-.35.56 0 .78l3.68 2.05a1.54 1.54 0 001.37 0l4.58-2.67C131.56 150 131.54 149.62 131.15 149.4zM124.6 153.21l-3.69-2.05a1.55 1.55 0 00-1.36 0L115 153.83c-.37.21-.35.56 0 .77l3.69 2.06a1.54 1.54 0 001.37 0l4.58-2.67C125 153.78 125 153.43 124.6 153.21zM118 157L114.35 155a1.55 1.55 0 00-1.36 0l-4.58 2.67c-.36.21-.35.56 0 .78l3.68 2a1.56 1.56 0 001.38 0l4.57-2.66C118.45 157.6 118.43 157.25 118 157zM111.49 160.86l-3.69-2.06a1.51 1.51 0 00-1.36 0l-4.58 2.67c-.37.21-.35.56 0 .77l3.68 2a1.5 1.5 0 001.37 0l4.58-2.67C111.9 161.42 111.88 161.07 111.49 160.86zM104.92 164.68l-3.69-2.05a1.48 1.48 0 00-1.36 0l-4.58 2.66c-.37.22-.35.57 0 .78L99 168.12a1.54 1.54 0 001.37 0l4.57-2.67C105.33 165.25 105.31 164.9 104.92 164.68zM98.37 168.5l-3.69-2.05a1.51 1.51 0 00-1.36 0l-4.58 2.67c-.37.21-.35.56 0 .77l3.68 2.06a1.57 1.57 0 001.37 0l4.58-2.67C98.78 169.06 98.76 168.72 98.37 168.5zM91.81 172.32l-3.69-2a1.51 1.51 0 00-1.36 0l-4.58 2.67c-.37.21-.35.56 0 .77l3.68 2.06a1.54 1.54 0 001.37 0l4.58-2.67C92.22 172.89 92.2 172.54 91.81 172.32zM85.26 176.13l-3.69-2a1.55 1.55 0 00-1.36 0l-4.58 2.66c-.37.22-.35.57 0 .78l3.69 2.06a1.57 1.57 0 001.37 0l4.58-2.67C85.66 176.7 85.65 176.35 85.26 176.13zM78.7 180L75 177.9a1.51 1.51 0 00-1.36 0l-4.57 2.67c-.37.21-.35.56 0 .77l3.69 2.06a1.54 1.54 0 001.37 0l4.57-2.66C79.11 180.52 79.09 180.17 78.7 180zM72.15 183.77l-3.69-2.05a1.48 1.48 0 00-1.36 0l-4.58 2.66c-.36.22-.35.57 0 .78l3.68 2.06a1.57 1.57 0 001.37 0l4.58-2.67C72.56 184.34 72.54 184 72.15 183.77zM169.5 133.5l-3.69-2.05a1.51 1.51 0 00-1.36 0l-15.44 9c-.36.21-.35.56 0 .77l3.69 2.06a1.55 1.55 0 001.36 0l15.44-9C169.9 134.06 169.89 133.72 169.5 133.5z"></path><path fill="#00537a" d="M152.05 143.67l-3.68-2.06a1.54 1.54 0 00-1.37 0l-4.58 2.67c-.36.21-.35.56 0 .77l3.68 2.06a1.57 1.57 0 001.37 0l4.57-2.67C152.45 144.23 152.44 143.88 152.05 143.67zM145.5 147.48l-3.69-2a1.48 1.48 0 00-1.36 0l-4.58 2.66c-.37.22-.36.57 0 .78l3.69 2.06a1.57 1.57 0 001.37 0l4.58-2.67C145.9 148.05 145.89 147.7 145.5 147.48zM138.94 151.31l-3.69-2.06a1.48 1.48 0 00-1.36 0l-4.58 2.66c-.36.22-.35.56 0 .78l3.69 2.06a1.55 1.55 0 001.36 0l4.58-2.67C139.35 151.87 139.33 151.52 138.94 151.31zM132.39 155.12l-3.69-2.05a1.49 1.49 0 00-1.35 0l-4.59 2.67c-.36.21-.35.56 0 .78l3.68 2.05a1.5 1.5 0 001.37 0l4.58-2.66C132.79 155.68 132.78 155.33 132.39 155.12zM125.83 158.94l-3.68-2.05a1.51 1.51 0 00-1.36 0l-4.58 2.67c-.37.22-.36.56 0 .77l3.69 2.06a1.48 1.48 0 001.36 0l4.58-2.66C126.24 159.5 126.22 159.16 125.83 158.94zM119.29 162.76l-3.69-2.06a1.54 1.54 0 00-1.37 0l-4.58 2.67c-.36.21-.35.56 0 .78l3.69 2a1.51 1.51 0 001.36 0l4.58-2.66C119.68 163.32 119.67 163 119.29 162.76zM112.71 166.59L109 164.53a1.54 1.54 0 00-1.37 0l-4.57 2.67c-.37.21-.36.56 0 .78L106.8 170a1.57 1.57 0 001.37 0l4.58-2.67C113.11 167.15 113.1 166.8 112.71 166.59zM106.16 170.41l-3.69-2.06a1.48 1.48 0 00-1.36 0L96.53 171c-.37.22-.35.56 0 .78l3.69 2.05a1.51 1.51 0 001.36 0l4.57-2.67C106.56 171 106.55 170.62 106.16 170.41zM99.61 174.22l-3.69-2.05a1.5 1.5 0 00-1.37 0L90 174.83c-.37.21-.36.56 0 .78l3.69 2.06a1.55 1.55 0 001.36 0L99.64 175C100 174.79 100 174.44 99.61 174.22zM93.05 178L89.36 176A1.55 1.55 0 0088 176l-4.57 2.67c-.37.21-.36.56 0 .78l3.68 2a1.5 1.5 0 001.37 0l4.58-2.66C93.46 178.6 93.44 178.26 93.05 178zM86.5 181.86l-3.69-2.05a1.5 1.5 0 00-1.37 0l-4.57 2.66c-.37.22-.36.56 0 .78l3.69 2.05a1.48 1.48 0 001.36 0l4.58-2.66C86.9 182.42 86.88 182.08 86.5 181.86zM80 185.68l-3.69-2.06a1.51 1.51 0 00-1.36 0l-4.58 2.67c-.37.21-.36.56 0 .77L74 189.12a1.51 1.51 0 001.36 0L80 186.45C80.35 186.24 80.33 185.89 80 185.68zM175.2 136.67l-3.69-2a1.48 1.48 0 00-1.36 0l-5 2.88c-.37.21-.35.56 0 .77l3.68 2.06a1.54 1.54 0 001.37 0l4.94-2.88C175.6 137.24 175.59 136.89 175.2 136.67zM168.38 140.65l-3.69-2.06a1.57 1.57 0 00-1.37 0l-4.94 2.88c-.37.22-.36.56 0 .78l3.69 2.05a1.51 1.51 0 001.36 0l4.95-2.88C168.78 141.21 168.77 140.86 168.38 140.65zM186.5 143l-9.31-5.19a1.54 1.54 0 00-1.37 0l-3.46 2c-.37.21-.35.56 0 .78l9.3 5.18a1.48 1.48 0 001.36 0l3.47-2C186.9 143.53 186.88 143.19 186.5 143zM175.43 143l-3.69-2a1.51 1.51 0 00-1.36 0l-4.95 2.88c-.37.22-.35.57 0 .79l3.69 2a1.57 1.57 0 001.37 0l4.95-2.88C175.83 143.57 175.81 143.22 175.43 143zM154.55 148.67l-3.69-2.06a1.54 1.54 0 00-1.37 0l-4.57 2.67c-.37.21-.35.56 0 .77l3.69 2.06a1.54 1.54 0 001.37 0l4.57-2.66C155 149.23 154.93 148.88 154.55 148.67z"></path><path fill="#00537a" d="M166.82 148l-2.34-1.3-1.35-.76-5.65-3.14a1.54 1.54 0 00-1.37 0l-4.58 2.67c-.36.21-.35.56 0 .78l5 2.76-3.81 2.22c-.37.21-.35.56 0 .77l3.69 2.06a1.54 1.54 0 001.37 0l9-5.28C167.22 148.53 167.21 148.17 166.82 148zM148 152.49l-3.69-2.06a1.5 1.5 0 00-1.37 0l-4.58 2.66c-.36.22-.35.57 0 .78l3.69 2.06a1.55 1.55 0 001.36 0l4.58-2.67C148.4 153.05 148.38 152.7 148 152.49zM141.44 156.31l-3.69-2.06a1.55 1.55 0 00-1.36 0l-4.58 2.67c-.37.22-.36.57 0 .78l3.69 2.06a1.57 1.57 0 001.37 0l4.58-2.67C141.84 156.87 141.82 156.52 141.44 156.31zM134.89 160.12l-3.69-2.05a1.54 1.54 0 00-1.37 0l-4.57 2.67c-.37.22-.35.56 0 .78l3.68 2.05a1.54 1.54 0 001.37 0l4.57-2.67C135.29 160.68 135.27 160.33 134.89 160.12zM128.34 163.94l-3.7-2.05a1.51 1.51 0 00-1.36 0l-4.58 2.67c-.37.21-.35.56 0 .78l3.69 2a1.51 1.51 0 001.36 0l4.58-2.67C128.73 164.51 128.72 164.15 128.34 163.94zM121.78 167.76l-3.69-2a1.54 1.54 0 00-1.37 0l-4.57 2.67c-.37.21-.35.56 0 .78l3.69 2a1.51 1.51 0 001.36 0l4.57-2.66C122.18 168.32 122.16 168 121.78 167.76zM115.21 171.59l-3.69-2.06a1.57 1.57 0 00-1.37 0l-4.58 2.66c-.36.22-.34.57 0 .78L109.3 175a1.51 1.51 0 001.36 0l4.58-2.66C115.61 172.15 115.59 171.8 115.21 171.59zM108.66 175.4L105 173.35a1.5 1.5 0 00-1.37 0L99 176c-.36.22-.35.57 0 .78l3.69 2.06a1.57 1.57 0 001.37 0l4.57-2.67C109.06 176 109 175.62 108.66 175.4zM102.1 179.23l-3.69-2.06a1.51 1.51 0 00-1.36 0l-4.58 2.66c-.37.22-.35.57 0 .78l3.69 2.06a1.55 1.55 0 001.36 0l4.58-2.67C102.5 179.79 102.48 179.44 102.1 179.23zM95.55 183l-3.69-2a1.54 1.54 0 00-1.37 0l-4.58 2.67c-.36.21-.34.56 0 .78l3.69 2a1.51 1.51 0 001.36 0l4.58-2.67C96 183.61 95.93 183.25 95.55 183zM88.9 186.92l-3.69-2.06a1.48 1.48 0 00-1.36 0l-10 5.83c-.36.21-.34.56 0 .78l3.69 2.05a1.5 1.5 0 001.37 0l10-5.83C89.3 187.48 89.28 187.13 88.9 186.92zM155.79 154.39l-3.69-2.06a1.55 1.55 0 00-1.36 0L146.16 155c-.37.22-.35.57 0 .78l3.69 2.06a1.5 1.5 0 001.37 0l4.57-2.67C156.19 155 156.17 154.6 155.79 154.39zM149.23 158.21l-3.69-2.06a1.51 1.51 0 00-1.36 0l-4.58 2.67c-.37.21-.35.56 0 .77l3.68 2.06a1.54 1.54 0 001.37 0l4.58-2.66C149.64 158.77 149.62 158.42 149.23 158.21zM142.68 162L139 160a1.51 1.51 0 00-1.36 0l-4.58 2.66c-.37.22-.35.57 0 .78l3.69 2.06a1.57 1.57 0 001.37 0l4.57-2.67C143.08 162.59 143.07 162.24 142.68 162zM136.12 165.84l-3.69-2.05a1.55 1.55 0 00-1.36 0l-4.58 2.66c-.36.22-.35.57 0 .78l3.69 2.06a1.57 1.57 0 001.37 0l4.58-2.67C136.53 166.41 136.51 166.06 136.12 165.84zM129.57 169.66l-3.69-2a1.51 1.51 0 00-1.36 0l-4.58 2.67c-.37.21-.35.56 0 .78l3.69 2a1.54 1.54 0 001.37 0l4.58-2.67C130 170.23 130 169.88 129.57 169.66zM123 173.49l-3.69-2.06a1.55 1.55 0 00-1.36 0l-4.58 2.67c-.37.21-.35.56 0 .78l3.69 2.05a1.54 1.54 0 001.37 0l4.58-2.67C123.4 174.06 123.39 173.7 123 173.49zM116.45 177.31l-3.69-2.06a1.51 1.51 0 00-1.36 0l-4.58 2.67c-.37.21-.35.56 0 .77l3.69 2.06a1.54 1.54 0 001.37 0l4.58-2.67C116.86 177.87 116.83 177.52 116.45 177.31zM109.89 181.12l-3.68-2.05a1.57 1.57 0 00-1.37 0l-4.58 2.67c-.37.21-.35.56 0 .77l3.69 2.06a1.54 1.54 0 001.37 0l4.58-2.66C110.3 181.69 110.28 181.34 109.89 181.12zM103.34 184.94l-3.69-2.05a1.51 1.51 0 00-1.36 0l-4.58 2.67c-.37.22-.35.57 0 .78l3.69 2.06a1.57 1.57 0 001.37 0l4.58-2.67C103.74 185.51 103.73 185.16 103.34 184.94zM96.78 188.76l-3.69-2a1.48 1.48 0 00-1.36 0l-4.58 2.66c-.36.22-.34.56 0 .78l3.69 2.06a1.55 1.55 0 001.36 0l4.58-2.67C97.19 189.33 97.17 189 96.78 188.76zM90.23 192.58l-3.68-2.06a1.57 1.57 0 00-1.37 0l-5.69 3.32c-.36.21-.35.56 0 .77l3.69 2.06a1.54 1.54 0 001.37 0l5.69-3.32C90.64 193.14 90.62 192.8 90.23 192.58zM181.05 146.14l-3.69-2a1.48 1.48 0 00-1.36 0L171.05 147c-.37.21-.36.56 0 .78l3.69 2.05a1.57 1.57 0 001.37 0l4.94-2.88C181.45 146.7 181.43 146.36 181.05 146.14zM173.93 150.26l-3.69-2.06a1.5 1.5 0 00-1.37 0l-6 3.51c-.36.22-.35.57 0 .78l3.69 2.06a1.55 1.55 0 001.36 0l6-3.52C174.33 150.82 174.31 150.47 173.93 150.26zM165.85 155l-3.69-2.06a1.54 1.54 0 00-1.37 0l-4.58 2.67c-.37.22-.34.56 0 .78l3.69 2.05a1.51 1.51 0 001.36 0l4.58-2.67C166.25 155.53 166.23 155.18 165.85 155zM159.3 158.78l-3.69-2.05a1.54 1.54 0 00-1.37 0l-4.58 2.67c-.36.21-.35.56 0 .78l3.69 2.05a1.48 1.48 0 001.36 0l4.58-2.66C159.7 159.34 159.68 159 159.3 158.78zM152.74 162.6l-3.69-2.06a1.57 1.57 0 00-1.37 0l-4.57 2.67c-.37.21-.36.56 0 .78l3.69 2a1.54 1.54 0 001.37 0l4.57-2.66C153.14 163.16 153.12 162.81 152.74 162.6zM146.19 166.42l-3.69-2.06a1.54 1.54 0 00-1.37 0L136.55 167c-.37.21-.35.56 0 .77l3.69 2.06a1.51 1.51 0 001.36 0l4.58-2.66C146.59 167 146.57 166.63 146.19 166.42zM139.63 170.24l-3.69-2.06a1.48 1.48 0 00-1.36 0L130 170.85c-.36.21-.34.56 0 .77l3.69 2.06a1.55 1.55 0 001.36 0l4.59-2.67C140 170.8 140 170.45 139.63 170.24zM133.08 174.06L129.39 172a1.54 1.54 0 00-1.37 0l-4.57 2.67c-.37.22-.35.56 0 .78l3.69 2.06a1.57 1.57 0 001.37 0l4.57-2.67C133.48 174.62 133.46 174.27 133.08 174.06zM126.51 177.88l-3.69-2a1.54 1.54 0 00-1.37 0l-4.58 2.67c-.36.21-.34.56 0 .78l3.69 2a1.51 1.51 0 001.36 0l4.58-2.67C126.91 178.45 126.89 178.1 126.51 177.88zM120 181.7l-3.69-2.06a1.57 1.57 0 00-1.37 0l-4.58 2.67c-.36.21-.35.56 0 .78l3.69 2a1.48 1.48 0 001.36 0l4.58-2.66C120.35 182.26 120.34 181.91 120 181.7zM113.4 185.52l-3.69-2.05a1.51 1.51 0 00-1.36 0l-4.58 2.67c-.37.21-.35.56 0 .78l3.68 2.05a1.54 1.54 0 001.37 0l4.57-2.66C113.8 186.08 113.78 185.73 113.4 185.52zM106.85 189.34l-3.69-2.06a1.5 1.5 0 00-1.37 0l-4.58 2.66c-.36.22-.35.57 0 .78l3.69 2.06a1.55 1.55 0 001.36 0l4.58-2.66C107.25 189.9 107.23 189.55 106.85 189.34zM100.2 193.21l-3.69-2.06a1.57 1.57 0 00-1.37 0l-10 5.83c-.36.22-.34.57 0 .78l3.69 2.06a1.55 1.55 0 001.36 0l10-5.83C100.6 193.77 100.58 193.43 100.2 193.21zM197.83 149.29l-9.34-5.21a1.54 1.54 0 00-1.37 0l-3.47 2c-.37.22-.34.57 0 .78l9.35 5.21a1.54 1.54 0 001.37 0l3.46-2C198.24 149.85 198.22 149.5 197.83 149.29zM186.86 149.23l-3.68-2.06a1.54 1.54 0 00-1.37 0l-5.22 3c-.37.21-.35.56 0 .78l3.69 2.06a1.57 1.57 0 001.37 0L186.9 150C187.27 149.79 187.25 149.44 186.86 149.23zM179.64 153.44L176 151.38a1.57 1.57 0 00-1.37 0L172 152.89c-.37.21-.35.56 0 .78l3.69 2.05a1.48 1.48 0 001.36 0l2.59-1.5C180 154 180 153.65 179.64 153.44zM174.85 156.23l-3.69-2.06a1.54 1.54 0 00-1.37 0l-2.7 1.57c-.37.22-.36.57 0 .79l3.69 2.05a1.5 1.5 0 001.37 0l2.71-1.58C175.25 156.79 175.23 156.44 174.85 156.23zM170.07 159L166.39 157a1.57 1.57 0 00-1.37 0l-7.51 4.37c-.36.22-.35.57 0 .79l3.69 2a1.55 1.55 0 001.36 0l7.51-4.37C170.47 159.58 170.45 159.22 170.07 159zM160.59 164.54l-3.69-2.06a1.5 1.5 0 00-1.37 0L151 165.14c-.37.22-.35.57 0 .78l3.68 2.06a1.57 1.57 0 001.37 0l4.57-2.67C161 165.1 161 164.75 160.59 164.54zM154 168.35l-3.69-2a1.54 1.54 0 00-1.37 0L144.4 169c-.36.21-.34.56 0 .78l3.69 2a1.51 1.51 0 001.36 0l4.58-2.67C154.44 168.92 154.42 168.57 154 168.35zM147.48 172.17l-3.69-2a1.51 1.51 0 00-1.36 0l-4.58 2.67c-.37.21-.35.57 0 .78l3.68 2.06a1.54 1.54 0 001.37 0l4.58-2.66C147.88 172.74 147.86 172.38 147.48 172.17zM140.93 176l-3.69-2.05a1.54 1.54 0 00-1.37 0l-4.57 2.67c-.37.21-.35.56 0 .78l3.68 2.05a1.54 1.54 0 001.37 0l4.57-2.66C141.33 176.55 141.31 176.2 140.93 176zM134.36 179.82l-3.69-2.06a1.57 1.57 0 00-1.37 0l-4.58 2.67c-.36.21-.35.56 0 .78l3.69 2a1.51 1.51 0 001.36 0l4.58-2.66C134.76 180.38 134.74 180 134.36 179.82zM127.81 183.64l-3.69-2.06a1.5 1.5 0 00-1.37 0l-4.58 2.66c-.36.22-.34.56 0 .78l3.68 2.06a1.55 1.55 0 001.36 0l4.58-2.67C128.21 184.2 128.19 183.85 127.81 183.64zM121.25 187.46l-3.68-2.06a1.53 1.53 0 00-1.38 0l-4.58 2.66c-.36.22-.34.56 0 .78l3.69 2.06a1.57 1.57 0 001.37 0l4.57-2.67C121.65 188 121.64 187.67 121.25 187.46zM114.7 191.27L111 189.22a1.54 1.54 0 00-1.37 0l-4.57 2.67c-.37.21-.36.57 0 .78l3.69 2.05a1.5 1.5 0 001.37 0l4.57-2.66C115.1 191.84 115.08 191.49 114.7 191.27zM108.14 195.09L104.45 193a1.51 1.51 0 00-1.36 0l-4.58 2.67c-.37.22-.35.56 0 .78l3.69 2.05a1.51 1.51 0 001.36 0l4.58-2.67C108.55 195.65 108.52 195.31 108.14 195.09zM101.59 198.91l-3.68-2.06a1.59 1.59 0 00-1.38 0L92 199.52c-.37.21-.35.56 0 .78l3.69 2a1.5 1.5 0 001.37 0l4.57-2.66C102 199.47 102 199.12 101.59 198.91zM190.39 153.63l-3.69-2.06a1.51 1.51 0 00-1.36 0l-4.58 2.67c-.37.21-.35.56 0 .77l3.69 2.06a1.54 1.54 0 001.37 0l4.58-2.66C190.79 154.19 190.78 153.84 190.39 153.63zM183.84 157.44l-3.69-2.05a1.5 1.5 0 00-1.37 0l-4.57 2.66c-.37.22-.35.56 0 .78l3.69 2a1.54 1.54 0 001.37 0l4.57-2.67C184.24 158 184.23 157.66 183.84 157.44zM177.22 161.3l-3.69-2.05a1.54 1.54 0 00-1.37 0l-4.57 2.67c-.37.21-.35.56 0 .77l3.69 2.06a1.54 1.54 0 001.37 0l4.58-2.67C177.63 161.86 177.61 161.52 177.22 161.3zM170.67 165.12L167 163.06a1.57 1.57 0 00-1.37 0L161 165.73c-.37.21-.35.56 0 .77l3.69 2.06a1.57 1.57 0 001.37 0l4.57-2.66C171.07 165.68 171.06 165.33 170.67 165.12zM164.11 168.94l-3.69-2.06a1.51 1.51 0 00-1.36 0l-30.81 18c-.37.22-.35.56 0 .78l3.69 2a1.54 1.54 0 001.37 0l30.81-18C164.52 169.5 164.5 169.15 164.11 168.94zM131.33 188L127.64 186a1.55 1.55 0 00-1.36 0l-4.58 2.67c-.37.21-.35.56 0 .77l3.69 2.06a1.5 1.5 0 001.37 0l4.58-2.67C131.73 188.6 131.72 188.25 131.33 188zM124.77 191.86l-3.69-2.06a1.51 1.51 0 00-1.36 0l-4.58 2.67c-.37.21-.35.56 0 .77l3.68 2.06a1.54 1.54 0 001.37 0l4.58-2.66C125.18 192.42 125.16 192.07 124.77 191.86zM118.22 195.67l-3.69-2a1.5 1.5 0 00-1.37 0l-4.57 2.66c-.37.22-.35.57 0 .78l3.69 2.05a1.54 1.54 0 001.37 0l4.58-2.67C118.62 196.24 118.61 195.89 118.22 195.67zM111.66 199.49L108 197.44a1.48 1.48 0 00-1.36 0L102 200.1c-.38.22-.36.57 0 .78l3.69 2.06a1.59 1.59 0 001.38 0l4.57-2.67C112.07 200.06 112.05 199.71 111.66 199.49zM105.11 203.31l-3.69-2.06a1.55 1.55 0 00-1.36 0l-3.55 2.07c-.36.21-.35.56 0 .78l3.69 2.05a1.54 1.54 0 001.37 0l3.55-2.07C105.52 203.87 105.5 203.53 105.11 203.31z"></path><path fill="#002e47" d="M125.29,29.86S26.86,87.24,26.69,87.35a6.73,6.73,0,0,0-2.42,7.31l24,86.4c.46,1.54,1.57,2.36,2.83,1.63L155.2,122a1.89,1.89,0,0,0,.94-1.63L131.65,32.93C131,30.16,127.89,28.34,125.29,29.86Z"></path><polygon fill="#00537a" points="27.37 91.88 51.13 173.81 151.18 116.15 127.77 33.79 27.37 91.88"></polygon><path fill="#fff" d="M128.08,33l-101,58.4-.34.2,24,82.93,100.94-58.18L128.25,33.66Zm-76.65,140L28,92.11l99.51-57.56,23.12,81.36Z"></path><path fill="#00537a" d="M72.13,146a4.38,4.38,0,1,0,4.37,4.38A4.38,4.38,0,0,0,72.13,146Z"></path><rect width="2.48" height="44.55" x="82.69" y="39.91" fill="#00537a"></rect><rect width="2.48" height="44.55" x="69.54" y="47.06" fill="#00537a"></rect><path fill="url(#b)" d="M81.76,37.5a2.74,2.74,0,0,1,0,.6v2.23L84,41.63V39.41C84,37.84,83,37.1,81.76,37.5Z"></path><path fill="#fff" d="M82.44,33.5h0a3.58,3.58,0,0,0-3.42.42l-5.31,3a11.18,11.18,0,0,0-5,8.75v2.22l2.15,1.31V47a11.16,11.16,0,0,1,5-8.73l5.31-3.06a3.66,3.66,0,0,1,3.4-.43h0l-1.83-1.09A1,1,0,0,0,82.44,33.5Z"></path><path fill="#ff2657" d="M81.14,35.21l-5.31,3a11.16,11.16,0,0,0-5,8.74v2.23L73,47.94V45.71a6.26,6.26,0,0,1,2.82-4.88l5.31-3c1.56-.9,2.82-.17,2.82,1.63v2.22l2.23-1.28V38.12C86.19,34.91,83.92,33.6,81.14,35.21Z"></path><path fill="#fff" d="M85,34.42a4,4,0,0,0-4.07.35l-5.31,3A11.75,11.75,0,0,0,70.28,47v2.23a.52.52,0,0,0,.25.43.59.59,0,0,0,.25.07.52.52,0,0,0,.25-.07l2.23-1.29a.5.5,0,0,0,.25-.43V45.71a5.79,5.79,0,0,1,2.57-4.45l5.31-3a1.52,1.52,0,0,1,1.5-.19,1.54,1.54,0,0,1,.57,1.39v2.22a.52.52,0,0,0,.25.44.5.5,0,0,0,.5,0l2.23-1.29a.5.5,0,0,0,.25-.43V38.12A4,4,0,0,0,85,34.42Zm.73,5.64-1.23.71V39.41a2.45,2.45,0,0,0-1.07-2.26,2.48,2.48,0,0,0-2.5.19L75.58,40.4a6.69,6.69,0,0,0-3.07,5.31v1.94l-1.23.71V47a10.63,10.63,0,0,1,4.8-8.31l5.31-3a4.14,4.14,0,0,1,2-.62,2.15,2.15,0,0,1,1.07.27,3.08,3.08,0,0,1,1.23,2.83Z"></path><path fill="#ff2657" d="M90.5,75l-25,14.27a7.92,7.92,0,0,0-3.31,6.32v47.53a3,3,0,0,0,1.07,2.63h0l.15.09,14.22,8.42,9-20.84,5.74-3.32a7.9,7.9,0,0,0,3.31-6.31V112.45L108.75,82,95.89,75A5.53,5.53,0,0,0,90.5,75Z"></path><path fill="#fff" d="M109,81.61,96.13,74.53a6,6,0,0,0-5.87,0L65.21,88.85h0a8.33,8.33,0,0,0-3.56,6.75v47.53A3.43,3.43,0,0,0,63,146.18l.17.1,14.22,8.42a.43.43,0,0,0,.25.07.39.39,0,0,0,.15,0,.54.54,0,0,0,.31-.28L87,133.78l5.6-3.23a8.37,8.37,0,0,0,3.56-6.75V112.56l13.07-30.32A.49.49,0,0,0,109,81.61ZM95.18,112.25a.48.48,0,0,0,0,.2V123.8a7.36,7.36,0,0,1-3.06,5.88L86.34,133a.47.47,0,0,0-.21.23l-8.76,20.32L63.61,145.4a.39.39,0,0,1-.11-.06,2.56,2.56,0,0,1-.85-2.21V95.6a7.38,7.38,0,0,1,3.05-5.88h0l25-14.27a5.05,5.05,0,0,1,4.9,0l12.46,6.85Z"></path><path fill="#ff5978" d="M109.56,82.84a1.92,1.92,0,0,0-2.88-.57L79.8,97.79a7.9,7.9,0,0,0-3.3,6.3v47.54c0,1.68.7,2.74,1.74,2.88.58.12,4.72.79,7.69-.66a.81.81,0,0,0,.24-.17c-1.37.58-2.43-.39-2.43-2.27V111.24a6.68,6.68,0,0,1,2.79-5.32L109.24,92.8c1.36-.78,2.48-.14,2.73,1.43l.06-.09s-1-7.71-2.26-10.81A3.61,3.61,0,0,0,109.56,82.84Z"></path><path fill="#fff" d="M110.24,83.18a3.58,3.58,0,0,0-.25-.59,2.32,2.32,0,0,0-1.41-1.14,2.77,2.77,0,0,0-2.15.39L79.55,97.36A8.31,8.31,0,0,0,76,104.09v47.54c0,1.9.83,3.19,2.13,3.37a17.93,17.93,0,0,0,3.09.27,11.58,11.58,0,0,0,4.94-1,1.38,1.38,0,0,0,.36-.26l1.82-1.81-2.36,1a1.13,1.13,0,0,1-1.07,0,2.09,2.09,0,0,1-.67-1.79V111.24a6.2,6.2,0,0,1,2.54-4.89l22.7-13.11a1.39,1.39,0,0,1,1.27-.18,1.56,1.56,0,0,1,.73,1.25l.2,1.26.87-1.31,0-.18C112.48,93.76,111.48,86.27,110.24,83.18Zm.94,9a2.35,2.35,0,0,0-2.2.22L86.29,105.49a7.08,7.08,0,0,0-3.05,5.75v40.17a3.11,3.11,0,0,0,1,2.52,15,15,0,0,1-5.92.08c-.8-.11-1.3-1-1.3-2.38V104.09a7.49,7.49,0,0,1,3-5.87L106.93,82.7a2.16,2.16,0,0,1,1.06-.33,1.86,1.86,0,0,1,.33,0,1.33,1.33,0,0,1,.8.67,2.53,2.53,0,0,1,.18.44,49.61,49.61,0,0,1,1.93,8.66Z"></path><path fill="#ffb642" d="M109.24,92.8,86.53,105.91a6.69,6.69,0,0,0-2.79,5.34v40.16c0,2.06,1.25,3,2.79,2.11l22.71-13.11a6.69,6.69,0,0,0,2.79-5.33V94.91C112,92.86,110.78,91.91,109.24,92.8Z"></path><path fill="#fff" d="M111.19,92.44a2,2,0,0,0-2.08.15L86.41,105.7a7,7,0,0,0-2.92,5.55v40.16a2.72,2.72,0,0,0,1.09,2.47,1.66,1.66,0,0,0,.84.23,2.59,2.59,0,0,0,1.24-.37l22.7-13.11a7,7,0,0,0,2.92-5.55V94.91A2.72,2.72,0,0,0,111.19,92.44Zm.59,42.64a6.42,6.42,0,0,1-2.67,5.11L86.41,153.3a1.56,1.56,0,0,1-1.58.15,2.27,2.27,0,0,1-.84-2V111.25a6.43,6.43,0,0,1,2.67-5.12L109.36,93a2,2,0,0,1,1-.3,1.2,1.2,0,0,1,.59.15,2.28,2.28,0,0,1,.84,2Z"></path><polygon fill="#fff" points="90.15 114.8 107.27 105.04 107.27 103.07 90.15 112.83 90.15 114.8"></polygon><path fill="#00537a" d="M99.79,77.65,77.28,90a14.2,14.2,0,0,0-7.37,12.44v40.69a.49.49,0,1,0,1,0V102.43a13.21,13.21,0,0,1,6.86-11.58l23.1-12.67C101.08,78.05,100,77.52,99.79,77.65Z"></path><path fill="#00537a" d="M89.82,63.43,113,141.58,151.37,120,129.48,39.53Zm24,73.22L92.92,66.12l35.72-21.66,19.62,72.81Z"></path><polygon points="92.92 66.12 113.84 136.65 148.27 117.27 128.64 44.45 92.92 66.12" style="mix-blend-mode:screen" fill="#80acff" opacity=".4"></polygon><polygon points="91.64 61.47 112.62 132.34 129.53 122.88 109.9 50.07 91.64 61.47" style="mix-blend-mode:screen" fill="#80acff" opacity=".4"></polygon><polygon fill="#002e47" points="85.79 61.51 108.97 139.67 113 141.59 89.82 63.43 85.79 61.51"></polygon><polygon fill="url(#a)" points="85.8 61.51 89.81 63.43 129.48 39.53 125.47 37.61 85.8 61.51"></polygon><polygon points="34.16 94.88 55.07 165.41 72.05 156.3 52.41 83.48 34.16 94.88" style="mix-blend-mode:screen" fill="#80acff" opacity=".4"></polygon><path fill="#00537a" d="M32.33,96.49l23.18,78.16L93.88,153,72,72.6Zm24,73.23L35.43,99.19,71.15,77.52l19.63,72.82Z"></path><polygon points="35.43 99.19 56.35 169.72 90.78 150.34 71.15 77.52 35.43 99.19" style="mix-blend-mode:screen" fill="#80acff" opacity=".4"></polygon><polygon fill="#002e47" points="28.3 94.58 51.48 172.74 55.51 174.66 32.33 96.5 28.3 94.58"></polygon><polygon fill="url(#c)" points="28.31 94.58 32.33 96.49 72 72.59 67.98 70.68 28.31 94.58"></polygon><path fill="#fff" d="M133.49,103.36c-2.89-.82-6,.09-9.3,2.71-7.24,5.81-13.73,19.28-13.69,20a1,1,0,0,0,1,.94h.06a1,1,0,0,0,.88-.64c1.69-4,11.93-23.46,20.51-21,1.07.3,1.34.84,1.45,1.21.74,2.5-3.1,8.14-5.7,11.11a1,1,0,0,0,1.51,1.32c.76-.87,7.4-8.63,6.11-13A3.75,3.75,0,0,0,133.49,103.36Z"></path><polygon fill="#ff5978" points="103.27 129.26 120.05 155.07 151.15 137.3 134.88 111.04 103.27 129.26"></polygon><path fill="#ff8da6" d="M109.84,128.79c-9.42-3.19-12.65,8.55-13.26,11.94a1.45,1.45,0,0,0,.63,1.46l21.32,12.86a1.44,1.44,0,0,0,2.21-1.28C120.37,147.35,118.59,131.75,109.84,128.79Z"></path><path fill="#ff5978" d="M140.91,110.86c-9.46-3.2-12.38,9.14-13,12.79a1.41,1.41,0,0,0,.69,1.48l21.09,12.19a1.43,1.43,0,0,0,2.15-1.31C151.48,129.69,149.74,113.85,140.91,110.86Z"></path><path fill="#002e47" d="M129.68,117.43l-19.84,11.36,2.41,1.25,16.32-9.37,14.82-8.52a9.11,9.11,0,0,0-2.33-1.23Z"></path><path fill="#fff" d="M139.32,104a6.2,6.2,0,0,0-4.85,1c-7.48,4.85-11.51,24.65-11.68,25.49a1,1,0,0,0,.79,1.18l.19,0a1,1,0,0,0,1-.81c0-.2,4-19.81,10.8-24.2a4.18,4.18,0,0,1,3.33-.69c4.09.92,2.68,11.87,1.87,15.64a1,1,0,1,0,1.95.42C143.07,120.37,146.07,105.57,139.32,104Z"></path><path fill="#eff6f9" d="M140.19,119.68c-2.26,1.36-.31,4.79-.31,4.79l4-2.34S143.31,117.79,140.19,119.68Z"></path><path fill="#c0ccda" d="M141.11,119.79c-2.26,1.36-1.23,4.68-1.23,4.68l4-2.34S143.37,118.43,141.11,119.79Z"></path><path fill="#eff6f9" d="M123.74,129.18c-2.26,1.36-.31,4.8-.31,4.8l4-2.34S126.86,127.3,123.74,129.18Z"></path><path fill="#c0ccda" d="M124.67,129.3c-2.26,1.36-1.24,4.68-1.24,4.68l4-2.34S126.92,127.94,124.67,129.3Z"></path><path fill="#ffb642" d="M139.14,137l-3.26,1.88a.61.61,0,0,0-.29.61l.28,1.88a.6.6,0,0,0,.89.43l3.22-1.84a.61.61,0,0,0,.3-.6l-.24-1.91A.6.6,0,0,0,139.14,137Z"></path><path fill="#fff" d="M139.82,136.74a.82.82,0,0,0-.8,0l-3.26,1.88a.83.83,0,0,0-.42.86l.29,1.87a.82.82,0,0,0,.47.64.78.78,0,0,0,.37.09.81.81,0,0,0,.42-.12l3.22-1.84a.84.84,0,0,0,.42-.84l-.24-1.91A.86.86,0,0,0,139.82,136.74Zm0,3-3.22,1.84a.35.35,0,0,1-.33,0,.36.36,0,0,1-.19-.26l-.28-1.87a.34.34,0,0,1,.17-.36l3.26-1.88a.34.34,0,0,1,.17,0,.29.29,0,0,1,.16,0,.32.32,0,0,1,.19.27l.24,1.91A.35.35,0,0,1,139.86,139.72Z"></path></g></g></svg>